<?xml version="1.0" encoding="UTF-8"?>
<svg xmlns="http://www.w3.org/2000/svg" id="a" width="865.76" height="682.89" viewBox="0 0 865.76 682.89">
  <ellipse cx="438.73" cy="308.58" rx="246.5" ry="247.25" fill="none" stroke="#002346" stroke-dasharray="0 22" stroke-linecap="round" stroke-linejoin="round"></ellipse>
  <path d="M686.62,553.16s-9.47,35.92-26.8,53.43c0,0-5.09,6.2-6.69,4.89-.49-.4-.67-1.48-.27-3.65,1.82-5.12,2.81-10.5,2.93-15.94-.04-3.38-.8-6.71-2.24-9.77-1.54-3.39-3.91-10.07-1-14.61l13.84-18.68s-1.35-8.73,7.58-3c0,0,7.94,1.57,11.26,4.6,.82,.68,1.33,1.67,1.39,2.73Z" fill="#e64661" stroke="#002346" stroke-miterlimit="10"></path>
  <path d="M691.9,556.73c-7.51,27.07-25.65,50.36-30.62,56.38-1.09,1.38-2.7,2.26-4.45,2.43-3.91,.3-3.8-3.87-3.8-3.87l.1-.19c1.6,1.31,6.69-4.89,6.69-4.89,17.33-17.51,26.8-53.43,26.8-53.43-.07-1.07-.59-2.06-1.43-2.73,1.85,.35,3.61,1.08,5.16,2.14,1.36,.91,1.98,2.58,1.55,4.16Z" fill="#fff" stroke="#002346" stroke-miterlimit="10"></path>
  <path d="M652.56,567.51c-11.78-15.81-32.17-28.45-32.17-28.45-25-15.52-52-24.72-52-24.72-15.51-2-26.75-31.88-26.75-31.88,8.55-1.58,15.54-3.26,21.21-4.9,4.11-1.18,7.52-2.36,10.33-3.45,1-.37,1.9-.74,2.77-1.12,1.49-.64,2.77-1.24,3.86-1.78,.31-.15,.6-.3,.89-.47,.75-.39,1.39-.76,1.93-1.09s.9-.56,1.31-.83c.46-.31,.91-.64,1.34-1v.09c-2.91,21.73,5.82,21.75,5.82,21.75,22.42,6.89,31.61,16.67,31.61,16.67,10.68,9.48,43.68,42.52,43.68,42.52,6.58,14.35-13.83,18.66-13.83,18.66Z" fill="#f1b2c0" stroke="#002346" stroke-miterlimit="10"></path>
  <path d="M528.52,570.08s9,0,8.42,8c0,0-12.17,62.23-26.82,73,0,0-6.92,5.35-6.92-4.51l25.32-76.49Z" fill="#fff" stroke="#002346" stroke-miterlimit="10"></path>
  <path d="M501.61,618.82c-3.2-5.22-9.43-17.57-1.11-23.58,0,0,9.72-3.5,11.19-19.73v-9.58s18.06,3,18.06,5.25c0,0,4.43,35.66-24.54,76.2-.43,.47-1.15,.5-1.62,.08-.25-.22-.38-.53-.38-.86v-22.06c0-2.02-.55-4-1.6-5.72Z" fill="#524596" stroke="#002346" stroke-miterlimit="10"></path>
  <path d="M511.69,575.51c-.66,14.81-11.19,19.73-11.19,19.73l-28.94-23c-18-14.84-46-33.44-59.44-42.14-4-2.62-8.3-4.74-12.81-6.32-5.39-1.86-7.57-4-7.57-4,0,0,18.42-9.65,26-22.51,0,0,1.17-1.53,.48-6.28,26.93,9.86,53.65,38.8,53.65,38.8l39.82,45.72Z" fill="#f1b2c0" stroke="#002346" stroke-miterlimit="10"></path>
  <path d="M486.03,649.74c0,.55-.06,1.11-.2,1.64-.55,2.29-2.43,4.02-4.76,4.38-5.53,.76-13.49-2-13.49-2-10.72-4.34-30.13-3.32-30.13-3.32-20.95-1.27-27.49-22-27.49-22-.01-.02-.01-.04,0-.06-.03-.43-.03-.85,0-1.28h0c1.63-3.74,17.79-2.49,17.79-2.49,13.21,.21,20.91-2.85,23.24-3.94,.73-.34,1.47-.66,2.24-.86,6.99-1.86,6.99,4.3,6.99,4.3l22.7,13.24c2.52,3.45,3.04,9.05,3.1,12.4Z" fill="#e64661" stroke="#002346" stroke-miterlimit="10"></path>
  <path d="M486.03,651.43c-1.18,23.81-26.88,8.18-26.88,8.18-5.91-3.77-18.74-5.72-25.87-6.55-6.61-.69-12.72-3.84-17.12-8.82-3.81-4.43-6-10.02-6.22-15.85-.01,.02-.01,.04,0,.06,0,0,6.54,20.69,27.49,22,0,0,19.41-1,30.13,3.32,0,0,8,2.79,13.49,2,2.33-.36,4.21-2.09,4.76-4.38l.22,.04Z" fill="#fff" stroke="#002346" stroke-miterlimit="10"></path>
  <path d="M483.18,638.38c-14.06,7.91-21.51-8.18-23.31-12.83-.28-.71-.15-1.51,.34-2.09,17.18-20.39,28.29-90.44,25.54-100.75-2.81-10.48,3.82-25.29,3.82-25.29,3.71-7.41,5.37-22.62,5.66-25.41v-.45c3.4,3.27,5.06,3.32,5.06,3.32,18.97,5.81,42.12,9.85,42.12,9.85-.54,7.72-12.13,18.83-12.13,18.83-5.77,6.38-6.73,15.08-6.73,15.08l-4.87,41.6c-1.84,10.93-6.66,22.69-11.57,31.5-2.25,4.03-4.47,8.08-6.54,12.19l-17.39,34.45Z" fill="#f1b2c0" stroke="#002346" stroke-miterlimit="10"></path>
  <path d="M642.72,133.31c0,16.83-16.79,30.27-23,28.28-.92-.3-2.14-1.1-4.49-1.49-3.6-.6-5.99,.4-7.43,.56-6.7,.75-17.47-13.81-17.47-29,0-5.77,1.72-12,6.28-15.88,6-5.09,12.72-1.89,19.74-1.89,6.1,0,14.67-2.5,19.33,.94,5.9,4.35,7.04,11.66,7.04,18.48Z" fill="#524596" stroke="#002346" stroke-miterlimit="10"></path>
  <polygon points="614.96 116.02 615.42 114.93 621.96 99.69 617.62 99.02 613.29 114.35 614.96 116.02" fill="#fff" stroke="#002346" stroke-miterlimit="10"></polygon>
  <path d="M615.96,105.69s-3-6.67-7.34-7.67-16.33,4.67-16.33,4.67c0,0,6,4.33,10.67,5.66s13-2.66,13-2.66Z" fill="#7cd295" stroke="#002346" stroke-miterlimit="10"></path>
  <path d="M243.83,146.09h6.78l7.38-13.84,7.48,16.46,1.28-3.39h9.38l10-22.68,6.43,21.12h11.74c6.81-7.9,6.37-19.72-1-27.1h0c-7.81-7.78-20.43-7.78-28.24,0l-2.06,2.06-2.07-2.07c-8.24-7.36-20.88-6.65-28.24,1.58-6.79,7.59-6.79,19.07,0,26.66l1.14,1.2Z" fill="#524596" stroke="#002346" stroke-miterlimit="10"></path>
  <polygon points="289.95 147.26 285.51 132.67 278.41 148.81 269.17 148.81 265.78 157.84 257.74 140.14 252.7 149.59 247.33 149.59 272.95 175.21 300.9 147.26 289.95 147.26" fill="#524596" stroke="#002346" stroke-miterlimit="10"></polygon>
  <path d="M179.45,264.8s-1.26-4.2-5-5-11.75,.42-13-4.19,4.62-3.36,3.36-7.14-10.5-3.78-12.6-10.92,.84-14.69,6.3-12.17,8,13,10.08,17.21,1.68-4.2,7.55-5,11.76,3.78,8,9.66-3.63,10.45-2.94,13.43c.48,2.09,.6,1.93,.6,1.93l-2.35,2.19Z" fill="#7cd295" stroke="#002346" stroke-miterlimit="10"></path>
  <path d="M192.62,258s-19.23,3.8-19.23,22,51.8,53.72,55.64,47-15-46.47-19.81-55.1-9.89-14.9-16.6-13.9Z" fill="#e6e7e8" stroke="#002346" stroke-linecap="round" stroke-linejoin="round"></path>
  <path d="M179.03,293.35s6.72-10.08,13-13" fill="none" stroke="#002346" stroke-linecap="round" stroke-linejoin="round"></path>
  <path d="M212.62,283.27c-4.7,1.96-8.98,4.82-12.6,8.4" fill="none" stroke="#002346" stroke-linecap="round" stroke-linejoin="round"></path>
  <path d="M203.39,314.34s2.94-7.56,10.07-11.34" fill="none" stroke="#002346" stroke-linecap="round" stroke-linejoin="round"></path>
  <line x1="202.12" y1="274.46" x2="197.92" y2="276.98" fill="none" stroke="#002346" stroke-linecap="round" stroke-linejoin="round"></line>
  <line x1="219.33" y1="300.06" x2="216.39" y2="300.9" fill="none" stroke="#002346" stroke-linecap="round" stroke-linejoin="round"></line>
  <circle cx="212.64" cy="414.26" r="31.25" fill="#e64661" stroke="#002346" stroke-miterlimit="10"></circle>
  <path d="M220.78,392.58c0,5.34-4.86,16.85-8.14,16.85s-8.14-11.51-8.14-16.85,4.86-6.92,8.14-6.92,8.14,1.58,8.14,6.92Z" fill="#fff" stroke="#002346" stroke-linecap="round" stroke-linejoin="round"></path>
  <path d="M197.93,396.37c4.63,2.67,12.65,11.47,11,14.31s-14.52,2.46-19.15-.21-3.56-7.67-1.92-10.51,5.45-6.26,10.07-3.59Z" fill="#fff" stroke="#002346" stroke-linecap="round" stroke-linejoin="round"></path>
  <path d="M189.79,418.05c4.63-2.67,17.85-5,19.49-2.17s-6.72,13.6-11.35,16.27-8.42-.75-10.06-3.59-2.7-7.84,1.92-10.51Z" fill="#fff" stroke="#002346" stroke-linecap="round" stroke-linejoin="round"></path>
  <path d="M204.5,435.94c0-5.34,4.86-18.36,8.14-18.36s8.14,13,8.14,18.36-4.86,6.92-8.14,6.92-8.14-1.58-8.14-6.92Z" fill="#fff" stroke="#002346" stroke-linecap="round" stroke-linejoin="round"></path>
  <path d="M227.39,432.15c-4.62-2.67-12.23-12.75-10.59-15.59s14.11-1.18,18.73,1.49,3.56,7.67,1.93,10.51-5.49,6.26-10.07,3.59Z" fill="#fff" stroke="#002346" stroke-linecap="round" stroke-linejoin="round"></path>
  <path d="M235.48,410.47c-4.62,2.67-17.09,3.84-18.73,1s6-12.43,10.59-15.1,8.43,.75,10.07,3.59,2.7,7.84-1.93,10.51Z" fill="#fff" stroke="#002346" stroke-linecap="round" stroke-linejoin="round"></path>
  <path d="M562.96,477.24s20.27-6.14,31.27-10.14c0,0-10.34-30.82-14.24-45.3-1.55,3.19-2.73,6.54-3.53,10l-10.48,37.08-3.02,8.36Z" fill="#524596" stroke="#002346" stroke-miterlimit="10"></path>
  <path d="M560.23,489.1l16.23-57.34c.94-3.41,2.12-6.75,3.53-10,2.37-5.42,6-16.21,3-25.6l-3.09-14.44-26.51-15.42-55.51,27.75s-4.65,60.05-8.65,81.05l71,14Z" fill="#524596" stroke="#002346" stroke-miterlimit="10"></path>
  <path d="M470.15,285.37c-.39,1.64,.52,3.31,2.1,3.89l9.22,3.37s4.29-.81,6.79,14.2c0,0,4.65,73.63,9.65,87.21,0,0,75.77-13.22,85.07,2.15,0,0,1.78-8.94-3.58-27.17,0,0-7.15-72.55-5-107.94l22.16,11.08s8.22-13.94,20-11.08c3.38-.76,6.92,.03,9.65,2.15,0,0-2.85-8.94-15-17.88l-34.67-31.09s-6.43-7.86-25-7.51l-17.57-3.41h-18.93l-16.06,21.7s-16.11,1.37-21.11,27.46l-7.72,32.86Z" fill="#e64661" stroke="#002346" stroke-miterlimit="10"></path>
  <path d="M328.73,310.6l-17.67-16.64c-.9-.85-2-1.44-3.2-1.73-5.71-1.36-22.82-6.28-17.36-15.47,0,0-1.86-5.6,2.1-6.3,0,0-1.86-5.83,3-5.83,0,0-4.67-4.67,3-4.44,0,0,3.77-.93,9.47,3.27,4.19,3.76,7.14,8.7,8.46,14.17,.21,.8,.62,1.54,1.19,2.14l10.1,8.46s.36,16.21,.91,22.37Z" fill="#f1b2c0" stroke="#002346" stroke-miterlimit="10"></path>
  <path d="M341.16,196.71s16.63,15-4.45,36.65l4.4-1.68s13.21-1.56,35.77-27.3c0,0,.6-.94,4.75-2.52,0,0-5.59-1.47-7.67-9.15l4.08-13.16-6.83-13.72-30.05,30.88Z" fill="#f1b2c0" stroke="#002346" stroke-miterlimit="10"></path>
  <path d="M394.67,203.43s-12.79-4.74-17.79,.95c0,0-20.44,23.58-35.77,27.3-2.92,.65-5.61,2.09-7.77,4.16-7.45,7.41-21.07,25.46-7.46,48.72,0,0,3.35,31.54,6.83,56.26l1.6,15.26s16.85-16.85,41.45-17.08l22.78-.23s-11.16-32-2.28-50.52c0,0,15.29-25.79,14.59-36.15l-16.18-48.67Z" fill="#524596" stroke="#002346" stroke-miterlimit="10"></path>
  <path d="M356.44,535.45c2.19,37.35-15.65,73.6-15.65,73.6-5.4,14.65-2.66,23.8-2.66,23.8-24.17,16.48-27.48-19.41-27.48-19.41,12.09-10.61,8.82-91.54,8.82-91.54-.89-9.75-.89-19.55,0-29.3,1.28,6.19,7.47,3.88,7.47,3.88,3.19,1.31,6.47,2.41,9.8,3.3,15.84,3.5,20.52,5.38,20.52,5.38l-.82,30.29Z" fill="#f1b2c0" stroke="#002346" stroke-miterlimit="10"></path>
  <path d="M339.56,649.09c-.73,5.24-7.5,5.1-12.85,4.13-2.85-.48-5.62-1.38-8.21-2.66-7.56-3.85-21.49-3.31-21.49-3.31-28.85,3.67-38.47-18.83-38.47-18.83-1.92-3.33-1.81-5.36-.76-6.56,2.29-2.68,9.15-1.42,9.15-1.42,15.35,1.43,36-5.53,36-5.53,7.57-5.11,7.72-1.47,7.72-1.47,0,0,3.31,35.89,27.48,19.41l1.43,16.24Z" fill="#524596" stroke="#002346" stroke-miterlimit="10"></path>
  <path d="M339.56,649.09c-.82,23.74-26.8,8.78-26.8,8.78-6.55-4.05-14.21-5.92-21.89-5.32-28.44-2.23-34.66-22.08-34.66-22.08-4.6-9,1.55-8.61,1.55-8.61h0c-1.05,1.2-1.16,3.23,.76,6.56,0,0,9.62,22.5,38.47,18.83,0,0,13.93-.54,21.49,3.31,2.59,1.28,5.36,2.18,8.21,2.66,5.37,.97,12.14,1.11,12.87-4.13Z" fill="#fff" stroke="#002346" stroke-miterlimit="10"></path>
  <path d="M494.13,196s5.63,6.69,6.22,22.65c.15,3.56-1.16,7.02-3.63,9.58-3.37,3.44-7.75,9.34-6.87,16.16,.19,1.65,1.67,2.83,3.32,2.64,.27-.03,.54-.1,.79-.2,3.4-1.39,9-5.18,14.45-15.52,0,0,14-26.68,25.51-28l-1.86-3.88c-1.85-3.87-2.95-8.06-3.23-12.34l-.79-12.04-33.92,20.95Z" fill="#f1b2c0" stroke="#002346" stroke-miterlimit="10"></path>
  <path d="M483.89,294.1s-1.34-6.06,1.18-19.46" fill="none" stroke="#002346" stroke-linecap="round" stroke-linejoin="round"></path>
  <path d="M552.72,312.25c7.6-5.72,15.5-12.03,23.67-16.91,0,0,19.06-18.1,20.11-23.17,0,0,7.26-12.19,17.71-11.45,1.51,.11,3.03,.1,4.54,.01,2.02-.12,5.01,.19,7.4,2.51,0,0,14.08,16.86,0,26.14,0,0-32.08,22.39-55.41,33.94-4.94,2.46-9.36,5.86-13,10-4.44,5-11.52,11.58-19.89,14.32,0,0-6.29,3.94-6.29,0,0,0-5.33,2.46-5.7-2.34,0,0-9.16-.34-4.24-7.46,0,0-4.35-3.37,2.34-9.35,0,0,6.58-12.43,14.62-12.13l8.3-1.55c2.12-.39,4.12-1.27,5.84-2.56Z" fill="#f1b2c0" stroke="#002346" stroke-miterlimit="10"></path>
  <path d="M411.93,252.66c-1.76-1.17-4-1.33-5.92-.44-8.11,3.76-30.43,11.4-37-14.5,0,0-5.86-19.54,19.89-32.64,3.88-1.97,8.41-2.26,12.51-.79,6.83,2.46,17.37,9,28,26.26,.98,1.6,2.22,3.03,3.67,4.23,8.1,6.67,35.72,30.77,36.27,49.72,.05,2.77-1.66,5.26-4.26,6.21-5.61,2.1-18.68,5.49-47.59,7.77,0,0-17.94,0-25.92,5,0,0-14.82,8.06-28,5.76-1.14-.18-1.92-1.25-1.74-2.39,0,0,0,0,0,0v-.1c.13-.54,.37-1.06,.7-1.51,0,0-6.72,1.46-6.13-3.8,0,0-7.61,2.63-5.56-4.39,0,0-3.33-.62-3.14-3.45,.09-.97,.54-1.86,1.26-2.51l2.69-2.52c.09-.08,.02-.23-.1-.21-1.47,.27-6.46,.91-6.84-2.82-.03-.26,.19-.49,.45-.51,3.21-.28,6.39-.78,9.53-1.49,7.96-2.15,16.37-1.53,23.88,1.7,2.45,1.05,5.14,1.4,7.78,1.05,9.57-1.29,32.01-5.2,45.64-14.73,.43-.28,.54-.86,.26-1.29,0,0,0,0,0,0-.07-.1-.16-.19-.26-.26l-20.07-17.34Z" fill="#f1b2c0" stroke="#002346" stroke-miterlimit="10"></path>
  <path d="M292.05,282.56c2.51,.34,6.2,.46,6.19-1.83,0-.26,.17-.49,.42-.56,1.07-.32,3.54-1.38,2.23-4.29-.05-.11,.03-.24,.15-.23,.84,.07,3.39,.1,3.92-2.14,.22-1.01-.12-2.06-.89-2.75-2.47-2.47-5.31-4.54-8.43-6.11,0,0-4.67-.64-3,5.83,0,0-4.03,.89-2.22,5.97,.07,.19,.06,.4-.05,.57-.2,.32-.54,.93-.77,1.66-.57,1.77,.62,3.62,2.46,3.87Z" fill="#f1b2c0" stroke="#002346" stroke-miterlimit="10"></path>
  <rect x="482.38" y="130.3" width="47.43" height="70.33" rx="23.72" ry="23.72" transform="translate(77.54 -150.54) rotate(18.3)" fill="#f1b2c0" stroke="#002346" stroke-miterlimit="10"></rect>
  <path d="M510.24,128.29s32.11-9.09,39.24,20.87c.21,.87,.31,1.76,.32,2.65,.11,6.43-.7,29.26-20.57,38.29l-1.22-15.05-8.28-9.21s-2.9,2.53-2.31-7.55l.37-7.94c.14-2.95-2.09-5.48-5.03-5.7-8.71-.65-25.33-3.57-27.5-16.26-.23-1.35,.19-2.74,1.1-3.76,2.73-3.07,9.97-7.86,23.88,3.67Z" fill="#002346" stroke="#002346" stroke-miterlimit="10"></path>
  <ellipse cx="525.52" cy="168.27" rx="8.79" ry="6.22" transform="translate(168.88 589.34) rotate(-67.49)" fill="#f1b2c0" stroke="#002346" stroke-miterlimit="10"></ellipse>
  <path d="M448.53,301.41c2,.72,28.55,28,40.41,15.77l-.71-10.34s-1-12.07-6.79-14.2l-6.05-2.22-8.69,.65c-.13,0-.22-.16-.12-.25,1.43-1.32,1.36-3.85,.81-5.78,.82-2.19-.04-4.65-2.05-5.85,0,0-19.88-10.08-21.19,1.32-1.98,2.24-2.49,5.43-1.32,8.18,0,0-2.38,4.27,.85,6.29,.45,.28,.71,.82,.63,1.35-.18,1.29,.17,3.65,4.22,5.08Z" fill="#f1b2c0" stroke="#002346" stroke-miterlimit="10"></path>
  <path d="M465.39,284.37s-10.68-5.47-21.35-3.86" fill="none" stroke="#002346" stroke-linecap="round" stroke-linejoin="round"></path>
  <path d="M463.95,289.28s-13.67-3.81-20.72-.18" fill="none" stroke="#002346" stroke-linecap="round" stroke-linejoin="round"></path>
  <path d="M444.23,297.1s4-5,14.02-5.19" fill="none" stroke="#002346" stroke-linecap="round" stroke-linejoin="round"></path>
  <line x1="521.69" y1="337.8" x2="533.92" y2="327.62" fill="none" stroke="#002346" stroke-linecap="round" stroke-linejoin="round"></line>
  <line x1="525.93" y1="345.26" x2="537.9" y2="334.21" fill="none" stroke="#002346" stroke-linecap="round" stroke-linejoin="round"></line>
  <line x1="531.63" y1="347.6" x2="540.81" y2="339.74" fill="none" stroke="#002346" stroke-linecap="round" stroke-linejoin="round"></line>
  <rect x="321.34" y="134.91" width="44.14" height="61.85" rx="22.07" ry="22.07" fill="#f1b2c0" stroke="#002346" stroke-miterlimit="10"></rect>
  <g>
    <ellipse cx="364.6" cy="123.9" rx="12.26" ry="13.26" transform="translate(-4.95 15.65) rotate(-2.44)" fill="#002346" stroke="#002346" stroke-miterlimit="10"></ellipse>
    <ellipse cx="357.74" cy="132.32" rx="9.43" ry="10.2" transform="translate(-5.31 15.37) rotate(-2.44)" fill="#524596" stroke="#002346" stroke-miterlimit="10"></ellipse>
    <path d="M329.31,150.71c2.75,2.15,8.56,5.33,19.16,5.76,0,0-.21,7.25,8.4,13.26,2.5,1.74,4.38,4.39,5.18,7.48,1.26,4.92,.96,10.07-6.54,16.81,0,0,4.9,2.64,10.58,2.25,2.26-.16,4.39-1.07,6.27-2.4,2.05-1.45,5.86-3.62,10.87-4.1,3.17-.3,5.99-2.51,7.09-5.74,1.47-4.29,.25-11.19-4.96-23.95,0,0-11.52-36.34-36.37-35.28,0,0-11.53-1.44-21.06,4.62-9.6,6.11-10.24,25.97-6.09,34.02l1.48-4.03c1.2-3.26,1.43-3.9,2.03-7.08,.06-.32,.17-.63,.33-.9h0c.77-1.33,2.44-1.67,3.63-.74Z" fill="#002346" stroke="#002346" stroke-miterlimit="10"></path>
  </g>
  <ellipse cx="367.33" cy="166.71" rx="5.63" ry="3.95" transform="translate(165.92 516.23) rotate(-84.46)" fill="#f1b2c0" stroke="#002346" stroke-miterlimit="10"></ellipse>
  <path d="M325.88,284.56s5.39,6.15,14.87,3.35" fill="none" stroke="#002346" stroke-linecap="round" stroke-linejoin="round"></path>
  <line x1="350.85" y1="297.05" x2="358.43" y2="291.09" fill="none" stroke="#002346" stroke-linecap="round" stroke-linejoin="round"></line>
  <line x1="356.41" y1="301.44" x2="363.67" y2="295.88" fill="none" stroke="#002346" stroke-linecap="round" stroke-linejoin="round"></line>
  <line x1="362.54" y1="305.24" x2="369.64" y2="299.77" fill="none" stroke="#002346" stroke-linecap="round" stroke-linejoin="round"></line>
  <line x1="292.64" y1="270.48" x2="300.9" y2="275.88" fill="none" stroke="#002346" stroke-linecap="round" stroke-linejoin="round"></line>
  <line x1="298.67" y1="280.16" x2="290.37" y2="277.02" fill="none" stroke="#002346" stroke-linecap="round" stroke-linejoin="round"></line>
  <path d="M389.23,524.1c-7-15-19.68-43.19-19.68-43.19-1.74,4.58-3.32,16.19-7.32,29.19l-53-14c11.76-32.1,27.5-93.38,28.93-112.38,.32-3.77-.15-7.57-1.36-11.15-2.44-7-2.47-16.49-2.47-16.49,22.06-19.28,41.44-17.08,41.44-17.08l22.77-.23c28.46,31.13,19.22,62.16,14.08,73.84-1.6,3.65-2.28,7.63-2,11.6l22.61,67.89-44,32Z" fill="#e64661" stroke="#002346" stroke-miterlimit="10"></path>
  <path d="M369.55,480.91c-.32,.19,13.09-65.46,13.09-65.46" fill="none" stroke="#002346" stroke-linecap="round" stroke-linejoin="round"></path>
  <line x1="574.4" y1="261.09" x2="554.01" y2="247" fill="none" stroke="#002346" stroke-linecap="round" stroke-linejoin="round"></line>
  <g>
    <circle cx="666.73" cy="407.6" r="28.5" fill="#524596" stroke="#002346" stroke-miterlimit="10"></circle>
    <circle cx="666.73" cy="407.6" r="23.5" fill="#fff" stroke="#002346" stroke-miterlimit="10"></circle>
    <circle cx="666.73" cy="407.6" r="2.5" fill="#524596" stroke="#002346" stroke-miterlimit="10"></circle>
    <line x1="666.73" y1="405.1" x2="666.73" y2="389.69" fill="none" stroke="#002346" stroke-linecap="round" stroke-linejoin="round"></line>
    <line x1="668.4" y1="409.45" x2="675.23" y2="417.1" fill="none" stroke="#002346" stroke-linecap="round" stroke-linejoin="round"></line>
  </g>
  <g>
    <circle cx="683.73" cy="281.6" r="30.5" fill="#e64661" stroke="#002346" stroke-miterlimit="10"></circle>
    <path d="M682.08,251.26s15.19,3.55,21.12,19.62c3.94,10.68,2.15,22.81-5.36,31.37-3.89,4.44-9.63,8.37-18.03,9.35" fill="none" stroke="#002346" stroke-linecap="round" stroke-linejoin="round"></path>
    <path d="M653.23,281.6s37,22.13,61,1.31" fill="none" stroke="#002346" stroke-linecap="round" stroke-linejoin="round"></path>
    <path d="M660.16,262.24s13.6-4.58,22.25,5.65c1.49,1.76,3.14,3.38,5.08,4.63,5.27,3.41,15.3,7.55,24.89-1.43" fill="none" stroke="#002346" stroke-linecap="round" stroke-linejoin="round"></path>
    <path d="M660.16,300.96s7.85,7.33,22.5,2.28c1.74-.6,3.42-1.4,5.04-2.27,3.77-2.02,14-6.57,19.59-.01" fill="none" stroke="#002346" stroke-linecap="round" stroke-linejoin="round"></path>
  </g>
  <path d="M592.29,102.69s11.4-3.41,23.67,3" fill="none" stroke="#002346" stroke-linecap="round" stroke-linejoin="round"></path>
  <g>
    <path d="M454.69,112.02h-23.21c-1.81,0-3.29-1.47-3.29-3.29V42.5c0-1.13,.38-2.23,1.09-3.11l9.46-11.87c.74-.93,1.14-2.08,1.14-3.27v-3.39h6.93v3.31c0,1.15,.38,2.27,1.07,3.18l9.06,11.88c.66,.87,1.02,1.93,1.02,3.02V108.73c0,1.81-1.47,3.29-3.29,3.29Z" fill="#fff" stroke="#002346" stroke-linecap="round" stroke-linejoin="round"></path>
    <path d="M431.51,64.89v41.76c0,.99,.8,1.79,1.79,1.79h19.56c.99,0,1.79-.8,1.79-1.79v-41.76h-23.14Z" fill="#524596" stroke="#002346" stroke-miterlimit="10"></path>
    <rect x="438.68" y="18.25" width="9.31" height="5.24" fill="#002346" stroke="#002346" stroke-miterlimit="10"></rect>
  </g>
  <path d="M159.57,235.48s-.67,4.62,8.32,11.27c5.42,4.01,9.82,9.3,12.33,15.56,.17,.42,.34,.86,.5,1.3" fill="none" stroke="#002346" stroke-linecap="round" stroke-linejoin="round"></path>
</svg>
