<?xml version="1.0" encoding="UTF-8"?>
<svg xmlns="http://www.w3.org/2000/svg" id="a" width="865.76" height="682.89" viewBox="0 0 865.76 682.89">
  <polygon points="484.48 47.25 494.05 240.01 528.15 239.35 527.91 289.85 576.24 240.18 730.89 240.08 748.25 37.71 484.48 47.25" fill="#e64661" stroke="#002346" stroke-miterlimit="10"></polygon>
  <path d="M145.81,634.13c2.28-11.11,7.96-19.07,7.96-19.07,13.11-16.69,13-39.3,12.23-49.02-.21-2.69-2.45-4.76-5.15-4.76h0c-1.06,0-2.09,.33-2.96,.93l-5.54,3.88c-7.65,5.36-17.6,6.38-26.08,2.46-7.72-3.57-13.38-8.4-13.38-8.4-18-16-9.31-48.02-4.31-62.98,2-5.99,2.79-12.32,2.34-18.62-5.23-74.22,5.48-111.34,5.48-111.34,9.32-46.71,43.66-51.44,43.66-51.44l212.13,9.22s39.7,9.16,41,22.3c0,0,9.72,100.7,27.39,125.44,.11,.16,.36,.12,.43-.06,.63-1.57,3.03-6.68,6.09-1.36,0,0,14,42.01,36.46,37.38,1.7-.35,3.09-1.59,3.71-3.21h0s5.32,4-.33,12.63c0,0-6.31,19.27-11.3,20.27,0,0-13.62,61.64-45,45.94,0,0-47.86-48.6-54.44-83.68-.05-.28-.42-.34-.56-.09-2.67,4.9-16.49,35,9.42,94.23,0,0,6.73,20.9,7.79,39.37l-247.03-.02Z" fill="#524596" stroke="#002346" stroke-miterlimit="10"></path>
  <path d="M229.24,334.6c-1.77,0,26.58,20.09,32.49,29,0,0,9.12-6.09,16.89-10.58s14.44-10.16,19.8-17.17c1.02-1.34,2-2.73,2.89-4.15,0,0,24.81-15.95,10.63-41.35,0,0-13.58-20.08-12.4-37.8l-66.15,1.77s7.08,21.86-1.19,42.53c0,0-2.36,18.9,13,29.54-3.56,5.29-9.58,8.39-15.95,8.21Z" fill="#f1b2c0" stroke="#002346" stroke-miterlimit="10"></path>
  <rect x="213.38" y="118.66" width="106" height="153" rx="53" ry="53" fill="#f1b2c0" stroke="#002346" stroke-miterlimit="10"></rect>
  <path d="M319.88,195.16s-19.8,11.85-25.12-24.18c0,0-4.19-48.8-31.39-39.08-2.42,.93-4.52,2.54-6.05,4.63-1.12,1.46-3.74,2.88-9.9,1.54-4.54-.99-9.37,.03-12.79,3.18-5.49,5.06-10.07,16.58-3.96,42.75,2.68,11.52-2.74,24.56-13.45,29.57-.7,.33-2.43,.64-3.2,.94,0,0-1.14,31.65,20.36,46.15,0,0,5.37,13.86-.97,32.77-1.11,3.32-1.45,6.86-1,10.33,.82,6.59,3.64,16.37,12.74,22.57,0,0-13.59,20.08-37.8-1.78,.04,0-29.5,19.5-49.58-13.57,0,0,31.64,2.32,29.26-31-.6-7.29-3.29-14.26-7.73-20.08-5.73-7.67-13.21-22.8-4.4-42.83,0,0,15.38-22.61,16.45-43.69,.39-9.28,2.07-18.46,5-27.27,7.86-22.89,23.91-58.5,46.59-54.17,5.44,1.04,11.03,.99,16.33-.62,13.7-4.16,40.43-7.03,58.18,24.7,1.84,3.28,3.83,6.47,6.07,9.49,7.01,9.42,22.46,34.19,19.68,66.75,0,0,1.49,10.92,7.2,20,2.16,3.5,3.89,7.26,5.14,11.18,2.91,9,5.83,23.42,.65,36.73,0,0-15.35,55.52,24.81,57.3,0,0-24.22,25.39-52.57,12.4-8.38,3.93-17.92,4.6-26.77,1.9-.16-.05-.2-.26-.06-.36,2.93-2.04,23.46-17.47,10.29-41.12,0,0-13.05-14.27-11.01-31.13,0,0,16.11-10.74,18.69-41.15l.31-22.85Z" fill="#002346" stroke="#002346" stroke-miterlimit="10"></path>
  <path d="M447.13,471.32s25.74-73.31,15.42-94.93c0,0-18.19-22.62-17.21-33.92,0,0-3-17.7,7.87-17.7h13.27l4.4-10.61s22.64-66.56,36.4-61.65c0,0,5.9,3.44-5.9,23.11,0,0-12.29,29-10.81,36.37,0,0,20.64,6.39,14.74,15.24,0,0,12.29,2.95,9.34,12.29,0,0,14.26,2.95,1.48,24.58,0,0-4.32,7.2-5.57,15.43-.56,3.67-1.48,7.28-2.75,10.76-.01,.03-.02,.06-.03,.1-.96,2.65-1.59,5.41-1.87,8.21-1.68,16.81-8.65,81.6-18.61,106.89,0,0-4.6,10.5-20.33-2.28,0,0-11.67-8.7-19.84-31.89Z" fill="#f1b2c0" stroke="#002346" stroke-miterlimit="10"></path>
  <g id="b">
    <polygon points="707.24 95.31 722.66 58.4 735.87 66.24 707.24 95.31" fill="#524596" stroke="#002346" stroke-miterlimit="10"></polygon>
    <polygon points="722.41 123.51 762.99 126.2 759.8 141.49 722.41 123.51" fill="#524596" stroke="#002346" stroke-miterlimit="10"></polygon>
    <polygon points="716.59 102.76 769.52 72.46 779.88 95.53 716.59 102.76" fill="#524596" stroke="#002346" stroke-miterlimit="10"></polygon>
    <polygon points="657.48 74 659.81 79.64 665.46 81.98 659.81 84.3 657.48 89.96 655.16 84.3 649.5 81.98 655.16 79.64 657.48 74" fill="#524596" stroke="#002346" stroke-miterlimit="10"></polygon>
    <polygon points="523.28 203.19 525.61 208.85 531.26 211.17 525.61 213.5 523.28 219.15 520.95 213.5 515.3 211.17 520.95 208.85 523.28 203.19" fill="#524596" stroke="#002346" stroke-miterlimit="10"></polygon>
    <polygon points="638.32 70.42 639.49 73.24 642.32 74.41 639.49 75.57 638.32 78.4 637.16 75.57 634.34 74.41 637.16 73.24 638.32 70.42" fill="#524596" stroke="#002346" stroke-miterlimit="10"></polygon>
    <polygon points="543.85 200.89 545.01 203.73 547.84 204.89 545.01 206.05 543.85 208.87 542.69 206.05 539.87 204.89 542.69 203.73 543.85 200.89" fill="#524596" stroke="#002346" stroke-miterlimit="10"></polygon>
    <polygon points="723.29 160.34 724.45 163.16 727.29 164.32 724.45 165.48 723.29 168.32 722.13 165.48 719.29 164.32 722.13 163.16 723.29 160.34" fill="#524596" stroke="#002346" stroke-miterlimit="10"></polygon>
  </g>
  <polygon points="278.94 510.87 212.65 523.1 192.21 414 258.5 401.77 278.94 510.87" fill="#e64661" stroke="#002346" stroke-miterlimit="10"></polygon>
  <polyline points="252.88 409.16 199.88 419.16 209.88 470.16" fill="none" stroke="#002346" stroke-linecap="round" stroke-linejoin="round"></polyline>
  <path d="M172.51,538.03c2.53-3.63,4.76-8.29,6.43-14.26l7-18.28s17.61,4,30.24-3c0,0,18.61-14,33.56-17.61,0,0,9-2.32,12.3-10.63,0,0,24.92-10,13.95-17.94,0,0,5.34-7.2-2.39-8.47-1.67-.25-3.37-.16-5,.26l-53.31,13.1c-1.42,.35-2.86-.52-3.21-1.94-.04-.15-.06-.3-.07-.45h0c-.07-1.11,.55-2.14,1.56-2.6,3.4-1.51,11.34-5,17.93-7.55,0,0,16.28-3.65,15.28-10.63,0,0,.22-4.17-15.56-2.7-6.9,.64-13.68,2.13-20.25,4.32-4.64,1.55-10.49,3.34-13.09,3.52l-3-15s-8.61,3.57-15.89,18.18c0,0-9.64,15.35-18.88,22.85-1.42,1.15-2.77,2.37-4.05,3.67-7.9,8.07-30.37,33.55-24.59,57.21,.02,.08,.04,.15,.05,.23,4.59,18.96,29.82,23.73,40.98,7.73Z" fill="#f1b2c0" stroke="#002346" stroke-miterlimit="10"></path>
  <path d="M203.53,477.25s11.77,5.34,39.56-6.37l32.88-14.56" fill="none" stroke="#002346" stroke-linecap="round" stroke-linejoin="round"></path>
  <line x1="262.04" y1="474.25" x2="217.38" y2="492.66" fill="#f1b2c0" stroke="#002346" stroke-miterlimit="10"></line>
  <path d="M151.88,395.16s-9.83,20.76-2.75,41.8c.41,1.23,.82,2.45,1.16,3.7,1.35,4.97,4.59,17.8,4.59,26.51" fill="none" stroke="#002346" stroke-linecap="round" stroke-linejoin="round"></path>
  <path d="M174.22,537.94s-2.34,16.22-16.34,24.22" fill="none" stroke="#002346" stroke-linecap="round" stroke-linejoin="round"></path>
  <path d="M134.39,494.67s-29.51,17.49-15.51,54.49" fill="none" stroke="#002346" stroke-linecap="round" stroke-linejoin="round"></path>
  <path d="M111.65,502.84s12.93-10.28,26.08-7.98" fill="none" stroke="#002346" stroke-linecap="round" stroke-linejoin="round"></path>
  <path d="M136.38,359.66s11,17,9,37" fill="none" stroke="#002346" stroke-linecap="round" stroke-linejoin="round"></path>
  <path d="M205.88,330.16l-3.73,43.4s22.97-19.36,48.35-8.88" fill="none" stroke="#002346" stroke-linecap="round" stroke-linejoin="round"></path>
  <path d="M316.77,336.16l3.73,43.4s-22.97-19.36-48.35-8.88" fill="none" stroke="#002346" stroke-linecap="round" stroke-linejoin="round"></path>
  <path d="M260.38,369.66s-6,15-5,28" fill="none" stroke="#002346" stroke-linecap="round" stroke-linejoin="round"></path>
  <path d="M402.88,346.16s-30,9-26,70c0,0,5.01,52.81,0,77.41" fill="none" stroke="#002346" stroke-linecap="round" stroke-linejoin="round"></path>
  <path d="M439.44,475.88l-8.37,19.73s-1.19,32.55,40.81,41.55" fill="none" stroke="#002346" stroke-linecap="round" stroke-linejoin="round"></path>
  <path d="M466.46,324.8s4.25-1.08,6.04,2.86c1.17,2.56,.65,5.65-1.25,7.72-2.06,2.24-6.21,4.81-14.6,6.13" fill="none" stroke="#002346" stroke-linecap="round" stroke-linejoin="round"></path>
  <path d="M471.88,317.16l4.75-7.19c1.33-1.67,3.61-2.25,5.58-1.44l8.4,3.46" fill="none" stroke="#002346" stroke-linecap="round" stroke-linejoin="round"></path>
  <path d="M505.7,327.51s-16.71-6.91-25.26,2.87c0,0-20.88,20.24-20.95,30.17-.01,2.08,1.43,3.98,3.49,4.26,1.27,.18,3-.07,5.26-1.38,0,0,.64,6.72,13.64-1.28l15.15-9.47c.53-.33,1.16-.48,1.78-.41,2.05,.23,7.37,.65,15.06-.12" fill="none" stroke="#002346" stroke-linecap="round" stroke-linejoin="round"></path>
  <path d="M468.24,363.44s13.64-22.28,26.64-23.28l17.71-.48" fill="none" stroke="#002346" stroke-linecap="round" stroke-linejoin="round"></path>
  <path d="M459.81,340.94s2.05,5.29,7.06,4.26" fill="none" stroke="#002346" stroke-linecap="round" stroke-linejoin="round"></path>
  <text transform="translate(523.19 134.86)" fill="#002346" font-family="Barlow-Black, Barlow" font-size="42" font-weight="800">
    <tspan x="0" y="0">E</tspan>
    <tspan x="23.94" y="0" letter-spacing="-.04em">X</tspan>
    <tspan x="49.94" y="0">CITING</tspan>
  </text>
  <text transform="translate(523.19 185.86)" fill="#002346" font-family="Barlow-Black, Barlow" font-size="64" font-weight="800">
    <tspan x="0" y="0">NE</tspan>
    <tspan x="78.59" y="0" letter-spacing="-.03em">W</tspan>
    <tspan x="136.64" y="0">S</tspan>
  </text>
  <path d="M256.05,514.97l2.92,47.26c.44,7.11,1.42,14.18,3,21.13,2.54,11.25,6.15,31.49,4.64,50.68" fill="none" stroke="#002346" stroke-linecap="round" stroke-linejoin="round"></path>
  <line x1="82.88" y1="634.16" x2="782.88" y2="634.16" fill="none" stroke="#002346" stroke-linecap="round" stroke-linejoin="round"></line>
  <g>
    <path d="M509.33,557.94c.23,2.58,.56,5.49,1.05,8.46,0,0,10.46-34.22,44.82-29.8l-6.75-14.87-5.58-5.58c-11.21,5.82-22.06,4.07-29.47,19.1-3.46,7.02-4.76,14.9-4.07,22.7Z" fill="#7cd295" stroke="#002346" stroke-miterlimit="10"></path>
    <path d="M606.23,525.18c-31.01,.04-35.65-45.67-4.32-83.72,.1-.12,.3-.04,.29,.12-1.24,12.97,36.84,59.45,11.88,80.73-2.19,1.87-4.97,2.86-7.85,2.87Z" fill="#7cd295" stroke="#002346" stroke-miterlimit="10"></path>
    <path d="M604.35,508.1c-19.57-11.62-15.15-46.43,42.83-66.98,.11-.04,.22,.06,.18,.17-.66,1.89-4.5,14.21-6.52,48.97-.54,9.27-13.77,31.32-36.49,17.84Z" fill="#7cd295" stroke="#002346" stroke-miterlimit="10"></path>
    <path d="M624.6,584.42c.88,6.85-45.55,6.85-44.67,0-.88-6.85,45.55-6.85,44.67,0Z" fill="#002346" stroke="#002346" stroke-miterlimit="10"></path>
    <path d="M626.44,645.08c-2.01-.3-53.14,.88-53.26-.95-10.07-4.78-10.5-20.37-10.5-20.37-1.52-20.81,17.26-31.98,17.26-31.98v-7.36c-.88,6.85,45.55,6.85,44.67,0v7.87c24.58,16.13,19.6,51.16,1.83,52.79Z" fill="#e64661" stroke="#002346" stroke-miterlimit="10"></path>
    <path d="M626.12,601.43c.06,3.95-6.15,3.95-6.09,0-.06-3.95,6.15-3.95,6.09,0Z" fill="#fff" stroke="#002346" stroke-miterlimit="10"></path>
    <path d="M635.26,610.56c.06,3.95-6.15,3.95-6.09,0-.06-3.95,6.15-3.95,6.09,0Z" fill="#fff" stroke="#002346" stroke-miterlimit="10"></path>
    <path d="M636.78,625.28c.06,3.95-6.15,3.95-6.09,0-.06-3.95,6.15-3.95,6.09,0Z" fill="#fff" stroke="#002346" stroke-miterlimit="10"></path>
    <path d="M628.66,636.45c.06,3.95-6.15,3.95-6.09,0-.06-3.95,6.15-3.95,6.09,0Z" fill="#fff" stroke="#002346" stroke-miterlimit="10"></path>
    <path d="M603.79,639.5c.06,3.95-6.15,3.95-6.09,0-.06-3.95,6.15-3.95,6.09,0Z" fill="#fff" stroke="#002346" stroke-miterlimit="10"></path>
    <path d="M584.5,636.45c.06,3.95-6.15,3.95-6.09,0-.06-3.95,6.15-3.95,6.09,0Z" fill="#fff" stroke="#002346" stroke-miterlimit="10"></path>
    <path d="M573.84,627.82c.06,3.95-6.15,3.95-6.09,0-.06-3.95,6.15-3.95,6.09,0Z" fill="#fff" stroke="#002346" stroke-miterlimit="10"></path>
    <path d="M575.36,610.56c.06,3.95-6.15,3.95-6.09,0-.06-3.95,6.15-3.95,6.09,0Z" fill="#fff" stroke="#002346" stroke-miterlimit="10"></path>
    <path d="M586.53,600.41c.06,3.95-6.15,3.95-6.09,0-.06-3.95,6.15-3.95,6.09,0Z" fill="#fff" stroke="#002346" stroke-miterlimit="10"></path>
    <path d="M596.68,609.55c.06,3.95-6.15,3.95-6.09,0-.06-3.95,6.15-3.95,6.09,0Z" fill="#fff" stroke="#002346" stroke-miterlimit="10"></path>
    <path d="M585.01,617.67c.06,3.95-6.15,3.95-6.09,0-.06-3.95,6.15-3.95,6.09,0Z" fill="#fff" stroke="#002346" stroke-miterlimit="10"></path>
    <path d="M595.16,627.82c.06,3.95-6.15,3.95-6.09,0-.06-3.95,6.15-3.95,6.09,0Z" fill="#fff" stroke="#002346" stroke-miterlimit="10"></path>
    <path d="M606.33,619.19c.06,3.95-6.15,3.95-6.09,0-.06-3.95,6.15-3.95,6.09,0Z" fill="#fff" stroke="#002346" stroke-miterlimit="10"></path>
    <path d="M608.36,601.93c.06,3.95-6.15,3.95-6.09,0-.06-3.95,6.15-3.95,6.09,0Z" fill="#fff" stroke="#002346" stroke-miterlimit="10"></path>
    <path d="M617.49,612.59c.06,3.95-6.15,3.95-6.09,0-.06-3.95,6.15-3.95,6.09,0Z" fill="#fff" stroke="#002346" stroke-miterlimit="10"></path>
    <path d="M624.6,619.7c.06,3.95-6.15,3.95-6.09,0-.06-3.95,6.15-3.95,6.09,0Z" fill="#fff" stroke="#002346" stroke-miterlimit="10"></path>
    <path d="M614.45,629.85c.06,3.95-6.15,3.95-6.09,0-.06-3.95,6.15-3.95,6.09,0Z" fill="#fff" stroke="#002346" stroke-miterlimit="10"></path>
    <path d="M652.01,550.16c-16.74-13.64-40.54,5.08-16.75,28.43,0,0,12.18,11.17,17.26,22.84,0,0,23.35-16.75,23.86-39.6,0,0,0-23.35-24.37-11.68Z" fill="#7cd295" stroke="#002346" stroke-miterlimit="10"></path>
    <path d="M509.9,547.33c26.3-46.37,37.54,1.32,77.13-5.29,.6-53.31-76.55-51.07-77.13,5.29Z" fill="#7cd295" stroke="#002346" stroke-miterlimit="10"></path>
    <path d="M579.93,591.78s18.74,9.62,44.67,.51" fill="none" stroke="#002346" stroke-linecap="round" stroke-linejoin="round"></path>
    <path d="M606.96,567.18s11.03-46.33,39.1-23.86c3.95,3.16,6.42,7.81,7.62,12.72,1.86,7.61,4.23,21.46,1.25,34.85" fill="none" stroke="#002346" stroke-linecap="round" stroke-linejoin="round"></path>
    <path d="M642.81,445.3s-51.84,37.5-34.19,138.98" fill="none" stroke="#002346" stroke-linecap="round" stroke-linejoin="round"></path>
    <path d="M530.31,517s68.38-1.1,70.59,66.18" fill="none" stroke="#002346" stroke-linecap="round" stroke-linejoin="round"></path>
  </g>
</svg>
