<svg xmlns="http://www.w3.org/2000/svg" viewBox="0 0 143.59 44.74"><defs><style>.cls-1{fill:#fbfbf3;}.cls-2{fill:#fff;}.cls-3{fill:none;}</style></defs><g id="Camada_2" data-name="Camada 2"><g id="Camada_1-2" data-name="Camada 1"><polygon class="cls-1" points="32.56 26.76 27.01 18.13 25.77 25.3 23.58 25.3 25.88 11.94 31.44 20.57 32.67 13.39 34.87 13.39 32.56 26.76"/><path class="cls-1" d="M38.47,25.53a3.75,3.75,0,0,1-3-1.35,4,4,0,0,1-.77-3.24L36,13.39h2.2l-1.31,7.55a1.94,1.94,0,0,0,1.94,2.37,2.93,2.93,0,0,0,2.76-2.37l1.3-7.55h2.2l-1.3,7.55a5.62,5.62,0,0,1-1.89,3.24A5.35,5.35,0,0,1,38.47,25.53Z"/><polygon class="cls-1" points="48.69 25.3 46.49 25.3 48.16 15.61 44.92 15.61 45.3 13.39 54 13.39 53.62 15.61 50.36 15.61 48.69 25.3"/><path class="cls-1" d="M59.06,20.8a4.72,4.72,0,0,0,3.22-3.63,3,3,0,0,0-3-3.78h-5L52.28,25.3h2.2l1-5.57.17-1h0l.54-3.12h2.77a1.24,1.24,0,0,1,1.17,1.56,1.93,1.93,0,0,1-1.71,1.56H56.54l-.37,2.07,3,4.5h2.89Z"/><path class="cls-1" d="M67.12,25.53a5.45,5.45,0,0,1-2.3-.49,4.8,4.8,0,0,1-1.71-1.32,5.12,5.12,0,0,1-1-2,5.88,5.88,0,0,1-.07-2.41,7,7,0,0,1,.9-2.41,8,8,0,0,1,1.65-2,7.35,7.35,0,0,1,2.18-1.33,6.53,6.53,0,0,1,2.45-.49,5.42,5.42,0,0,1,2.3.49,4.81,4.81,0,0,1,2.68,3.29,5.55,5.55,0,0,1,.07,2.41,6.84,6.84,0,0,1-.9,2.41A7.77,7.77,0,0,1,69.59,25,6.63,6.63,0,0,1,67.12,25.53Zm1.75-10.16a4.61,4.61,0,0,0-3,1.17,4.79,4.79,0,0,0-1.63,2.8,3.38,3.38,0,0,0,.66,2.8,3.26,3.26,0,0,0,2.57,1.17,4.59,4.59,0,0,0,3-1.17,4.75,4.75,0,0,0,1.64-2.8,3.44,3.44,0,0,0-.67-2.8A3.23,3.23,0,0,0,68.87,15.37Z"/><polygon class="cls-1" points="81.15 25.3 73.98 25.3 76.03 13.39 78.22 13.39 76.56 23.07 81.53 23.07 81.15 25.3"/><polygon class="cls-1" points="83.68 25.3 81.48 25.3 83.54 13.39 85.73 13.39 83.68 25.3"/><path class="cls-1" d="M90.45,25.53a5.58,5.58,0,0,1-2.22-.45,4.82,4.82,0,0,1-1.79-1.36,5,5,0,0,1-1-2,6.14,6.14,0,0,1,0-2.34A7.28,7.28,0,0,1,86.25,17,8.11,8.11,0,0,1,88,15a7.69,7.69,0,0,1,2.25-1.36,6.12,6.12,0,0,1,4.61,0A4.85,4.85,0,0,1,96.6,15l.39.48L95.17,17l-.4-.48a3.23,3.23,0,0,0-2.57-1.17,4.56,4.56,0,0,0-3,1.16,4.81,4.81,0,0,0-1.64,2.81,3.45,3.45,0,0,0,.65,2.8,3.26,3.26,0,0,0,2.59,1.17,4.61,4.61,0,0,0,3-1.17,4.81,4.81,0,0,0,1.28-1.7H90.65L91,18.22h6.7l0,.61c0,.18,0,.35-.06.5A7.06,7.06,0,0,1,97.12,21a7.83,7.83,0,0,1-2,2.72,7.66,7.66,0,0,1-2.25,1.35A6.66,6.66,0,0,1,90.45,25.53Z"/><path class="cls-1" d="M106.63,25.3h-2.4l-.63-2.53H99.28L97.77,25.3H95.38l7.9-13.19Zm-6-4.75H103l-.73-2.85Z"/><path class="cls-1" d="M24,31l-.05.29H22.78l.47-2.83h.27L23.1,31Z"/><path class="cls-1" d="M24.36,31.31l.46-2.83h.27l-.46,2.83Z"/><path class="cls-1" d="M28,30.16a1.79,1.79,0,0,1-.61.85,1.5,1.5,0,0,1-.91.33,1.19,1.19,0,0,1-.51-.11,1.07,1.07,0,0,1-.38-.32,1.14,1.14,0,0,1-.21-.46,1.55,1.55,0,0,1,0-.57,1.94,1.94,0,0,1,.2-.57,1.83,1.83,0,0,1,.37-.46,1.52,1.52,0,0,1,.48-.31,1.27,1.27,0,0,1,.52-.12,1.12,1.12,0,0,1,.78.29,1.2,1.2,0,0,1,.37.76h-.29a.92.92,0,0,0-.31-.55.84.84,0,0,0-.57-.21,1.17,1.17,0,0,0-.82.35,1.41,1.41,0,0,0-.46.82,1,1,0,0,0,.18.82.85.85,0,0,0,.71.35,1.2,1.2,0,0,0,.69-.22,1.6,1.6,0,0,0,.5-.59H26.6l0-.26H28Z"/><path class="cls-1" d="M29.82,31.31l-.16-.77H28.51l-.41.77h-.29l1.64-3,.66,3Zm-.21-1L29.34,29l-.69,1.31Z"/><path class="cls-1" d="M33.24,31.31l-.16-.77H31.93l-.41.77h-.29l1.65-3,.65,3Zm-.21-1L32.76,29l-.69,1.31Z"/><path class="cls-1" d="M35.65,31.1a1.35,1.35,0,0,1-.77.25,1,1,0,0,1-.86-.43,1.28,1.28,0,0,1-.21-1,1.55,1.55,0,0,1,.19-.56,1.8,1.8,0,0,1,.35-.47,1.43,1.43,0,0,1,1-.43,1,1,0,0,1,.69.25,1.1,1.1,0,0,1,.38.65h-.3a.86.86,0,0,0-.54-.56,1,1,0,0,0-.32,0,1,1,0,0,0-.38.09,1.6,1.6,0,0,0-.37.25,1.4,1.4,0,0,0-.43.82,1,1,0,0,0,.16.8.82.82,0,0,0,.69.35,1.07,1.07,0,0,0,.56-.17,1.45,1.45,0,0,0,.45-.44h.3A1.79,1.79,0,0,1,35.65,31.1Z"/><path class="cls-1" d="M38.1,31.31l-.16-.77H36.79l-.41.77h-.29l1.64-3,.66,3Zm-.21-1L37.62,29l-.69,1.31Z"/><path class="cls-1" d="M40.79,30.46a1.62,1.62,0,0,1-.84.74,1.5,1.5,0,0,1-.55.11h-.68l.46-2.83h.69a1.25,1.25,0,0,1,.51.1,1,1,0,0,1,.38.3,1.06,1.06,0,0,1,.21.44,1.36,1.36,0,0,1,0,.57A1.74,1.74,0,0,1,40.79,30.46Zm-.25-1.38a.86.86,0,0,0-.71-.31H39.4L39,31h.43a1.2,1.2,0,0,0,.81-.32,1.32,1.32,0,0,0,.45-.81A1,1,0,0,0,40.54,29.08Z"/><path class="cls-1" d="M41.22,31.31l.46-2.83h1.56l-.05.27H41.9l-.16,1H43l-.05.28H41.69l-.16,1h1.29l0,.27Zm1-3.12H42l.53-.6h.25l.33.6h-.28l-.2-.45Z"/><path class="cls-1" d="M45.69,29.29l-1.14,2.18-.44-2.18-.73,2H43.1l1.11-3,.46,2.42,1.26-2.42.11,3h-.27Z"/><path class="cls-1" d="M46.37,31.31l.47-2.83h.27l-.47,2.83Z"/><path class="cls-1" d="M49.18,31.1a1.35,1.35,0,0,1-.77.25,1,1,0,0,1-.86-.43,1.28,1.28,0,0,1-.21-1,1.55,1.55,0,0,1,.19-.56,1.8,1.8,0,0,1,.35-.47,1.43,1.43,0,0,1,1-.43,1,1,0,0,1,.69.25,1.1,1.1,0,0,1,.38.65h-.3a.86.86,0,0,0-.54-.56,1,1,0,0,0-.32,0,1,1,0,0,0-.38.09,1.6,1.6,0,0,0-.37.25,1.4,1.4,0,0,0-.43.82,1,1,0,0,0,.16.8.81.81,0,0,0,.68.35,1.08,1.08,0,0,0,.57-.17,1.45,1.45,0,0,0,.45-.44h.3A1.79,1.79,0,0,1,49.18,31.1Z"/><path class="cls-1" d="M51.63,31.31l-.16-.77H50.32l-.41.77h-.29l1.64-3,.66,3Zm-.21-1L51.15,29l-.69,1.31Z"/><path class="cls-1" d="M55.36,30.46a2,2,0,0,1-.36.45,1.81,1.81,0,0,1-.48.29,1.5,1.5,0,0,1-.55.11h-.68l.46-2.83h.69a1.22,1.22,0,0,1,.51.1,1,1,0,0,1,.38.3,1.06,1.06,0,0,1,.21.44,1.55,1.55,0,0,1,0,.57A1.75,1.75,0,0,1,55.36,30.46Zm-.25-1.38a.86.86,0,0,0-.71-.31H54L53.6,31H54a1.2,1.2,0,0,0,.81-.32,1.32,1.32,0,0,0,.45-.81A1,1,0,0,0,55.11,29.08Z"/><path class="cls-1" d="M55.79,31.31l.46-2.83h1.56l-.05.27H56.48l-.17,1h1.25l0,.28H56.27l-.17,1h1.29l0,.27Z"/><path class="cls-1" d="M59.23,31.31H59l.5-3,1.1,2.26.34-2.08h.27l-.49,3-1.1-2.26Z"/><path class="cls-1" d="M62.94,31.1a1.16,1.16,0,0,1-.74.25.87.87,0,0,1-.66-.25.84.84,0,0,1-.16-.73l.31-1.89H62l-.32,1.93a.5.5,0,0,0,.14.49.66.66,0,0,0,.47.15.76.76,0,0,0,.7-.35.63.63,0,0,0,.11-.29l.32-1.93h.27l-.31,1.89A1.18,1.18,0,0,1,62.94,31.1Z"/><path class="cls-1" d="M64,28.47H65.5l0,.27h-.64L64.4,31.3h-.27l.42-2.56h-.64Z"/><path class="cls-1" d="M67.05,30a1,1,0,0,1-.56.24l.63,1.12h-.36l-.59-1.12h-.32l-.18,1.12H65.4l.46-2.83h.85a.66.66,0,0,1,.54.24.71.71,0,0,1,.15.61A1,1,0,0,1,67.05,30Zm-.54,0a.56.56,0,0,0,.4-.17.72.72,0,0,0,.22-.42.48.48,0,0,0-.08-.4.38.38,0,0,0-.35-.16h-.61l-.19,1.15Z"/><path class="cls-1" d="M70.11,30.45a1.84,1.84,0,0,1-.36.46,1.68,1.68,0,0,1-.48.32,1.5,1.5,0,0,1-.55.11,1.18,1.18,0,0,1-.5-.11,1.07,1.07,0,0,1-.38-.32,1.14,1.14,0,0,1-.21-.46,1.36,1.36,0,0,1,0-.57,1.64,1.64,0,0,1,.2-.56,1.84,1.84,0,0,1,.36-.46,1.52,1.52,0,0,1,.48-.31,1.29,1.29,0,0,1,.54-.12,1.1,1.1,0,0,1,.51.12,1,1,0,0,1,.38.31,1.14,1.14,0,0,1,.21.46,1.32,1.32,0,0,1,0,.56A1.69,1.69,0,0,1,70.11,30.45Zm-.25-1.39a.86.86,0,0,0-.71-.34,1.22,1.22,0,0,0-.81.34,1.37,1.37,0,0,0-.45.82,1,1,0,0,0,.18.83.83.83,0,0,0,.7.34,1.18,1.18,0,0,0,.82-.34,1.37,1.37,0,0,0,.45-.83A1,1,0,0,0,69.86,29.06Z"/><path class="cls-1" d="M71.8,31l0,.29H70.54L71,28.48h.27L70.86,31Z"/><path class="cls-1" d="M74.54,30.45a1.83,1.83,0,0,1-.84.78,1.5,1.5,0,0,1-.55.11,1.18,1.18,0,0,1-.5-.11,1.07,1.07,0,0,1-.38-.32,1.14,1.14,0,0,1-.21-.46,1.55,1.55,0,0,1,0-.57,1.88,1.88,0,0,1,.2-.56,1.67,1.67,0,0,1,.37-.46,1.52,1.52,0,0,1,.48-.31,1.25,1.25,0,0,1,.54-.12,1.06,1.06,0,0,1,.5.12,1,1,0,0,1,.38.31,1.16,1.16,0,0,1,.22.46,1.5,1.5,0,0,1,0,.56A1.69,1.69,0,0,1,74.54,30.45Zm-.25-1.39a.87.87,0,0,0-.71-.34,1.22,1.22,0,0,0-.82.34,1.49,1.49,0,0,0-.45.82,1,1,0,0,0,.19.83.81.81,0,0,0,.7.34,1.18,1.18,0,0,0,.82-.34,1.37,1.37,0,0,0,.45-.83A1,1,0,0,0,74.29,29.06Z"/><path class="cls-1" d="M77.72,30.16a1.73,1.73,0,0,1-.61.85,1.48,1.48,0,0,1-.91.33,1.19,1.19,0,0,1-.51-.11,1.07,1.07,0,0,1-.38-.32,1.14,1.14,0,0,1-.21-.46,1.36,1.36,0,0,1,0-.57,1.69,1.69,0,0,1,.2-.57,2,2,0,0,1,.36-.46,1.79,1.79,0,0,1,.48-.31,1.27,1.27,0,0,1,.52-.12,1.12,1.12,0,0,1,.78.29,1.2,1.2,0,0,1,.37.76h-.28a1,1,0,0,0-.31-.55.86.86,0,0,0-.58-.21,1.19,1.19,0,0,0-.82.35,1.35,1.35,0,0,0-.45.82,1,1,0,0,0,.18.82.84.84,0,0,0,.71.35,1.19,1.19,0,0,0,.68-.22,1.51,1.51,0,0,0,.5-.59H76.37l0-.26h1.36Z"/><path class="cls-1" d="M78,31.31l.46-2.83h.27l-.46,2.83Z"/><path class="cls-1" d="M80.63,31.31l-.16-.77H79.32l-.41.77h-.29l1.65-3,.65,3Zm-.21-1L80.16,29l-.7,1.31Z"/><path class="cls-1" d="M84.36,30.46a2,2,0,0,1-.36.45,1.66,1.66,0,0,1-.48.29,1.45,1.45,0,0,1-.54.11h-.69l.46-2.83h.69a1.19,1.19,0,0,1,.51.1,1,1,0,0,1,.38.3,1.21,1.21,0,0,1,.22.44,1.55,1.55,0,0,1,0,.57A1.75,1.75,0,0,1,84.36,30.46Zm-.25-1.38a.86.86,0,0,0-.71-.31H83L82.61,31H83a1.23,1.23,0,0,0,.82-.32,1.43,1.43,0,0,0,.45-.81A1,1,0,0,0,84.11,29.08Z"/><path class="cls-1" d="M86.38,31.31l-.15-.77H85.07l-.4.77h-.3l1.65-3,.66,3Zm-.21-1L85.91,29l-.69,1.31Z"/><path class="cls-1" d="M23.53,35.68a1.18,1.18,0,0,1-.74.25A.76.76,0,0,1,22,35l.31-1.89h.27L22.23,35a.51.51,0,0,0,.13.49.68.68,0,0,0,.47.15.79.79,0,0,0,.71-.35.83.83,0,0,0,.11-.29L24,33.06h.27L23.92,35A1.16,1.16,0,0,1,23.53,35.68Z"/><path class="cls-1" d="M24.56,35.89h-.27l.49-3,1.11,2.26.34-2.08h.27l-.5,3-1.1-2.26Z"/><path class="cls-1" d="M26.61,35.89l.46-2.83h.27l-.46,2.83Z"/><path class="cls-1" d="M27.67,33.06H28l.53,2.28,1.27-2.28h.29l-1.68,3Z"/><path class="cls-1" d="M29.92,35.89l.46-2.83h1.56l-.05.27H30.61l-.17,1h1.25l-.05.27H30.4l-.17,1h1.29l-.05.27Z"/><path class="cls-1" d="M33.7,34.53a.91.91,0,0,1-.55.24l.62,1.12h-.36l-.59-1.12h-.31l-.19,1.12h-.27l.47-2.83h.84a.69.69,0,0,1,.55.24.74.74,0,0,1,.14.61A1,1,0,0,1,33.7,34.53Zm-.54,0a.55.55,0,0,0,.4-.16.78.78,0,0,0,.22-.42.55.55,0,0,0-.07-.41.41.41,0,0,0-.36-.16h-.61l-.19,1.15Z"/><path class="cls-1" d="M34.42,33.81a.84.84,0,0,1,.35-.59,1.08,1.08,0,0,1,.64-.2c.51,0,.78.2.81.61h-.29c0-.24-.2-.36-.56-.36a.69.69,0,0,0-.57.24.43.43,0,0,0-.09.23.36.36,0,0,0,.19.4,2.5,2.5,0,0,0,.5.19,1.36,1.36,0,0,1,.54.25.52.52,0,0,1,.16.53.86.86,0,0,1-.42.65,1.24,1.24,0,0,1-.67.18c-.59,0-.88-.23-.9-.71h.32c0,.3.21.45.62.45a.81.81,0,0,0,.66-.27.61.61,0,0,0,.11-.27.32.32,0,0,0-.08-.29,1.36,1.36,0,0,0-.64-.29C34.58,34.42,34.36,34.17,34.42,33.81Z"/><path class="cls-1" d="M36.36,35.89l.47-2.83h.27l-.47,2.83Z"/><path class="cls-1" d="M39.28,35a1.62,1.62,0,0,1-.36.45,1.53,1.53,0,0,1-.47.29,1.32,1.32,0,0,1-.55.11h-.69l.47-2.83h.68a1.19,1.19,0,0,1,.51.11.92.92,0,0,1,.38.29,1.06,1.06,0,0,1,.22.45,1.54,1.54,0,0,1,0,.57A1.56,1.56,0,0,1,39.28,35ZM39,33.67a.86.86,0,0,0-.71-.32H37.9l-.37,2.25H38a1.21,1.21,0,0,0,.82-.32,1.27,1.27,0,0,0,.45-.8A1,1,0,0,0,39,33.67Z"/><path class="cls-1" d="M41.31,35.89l-.16-.77H40l-.41.77H39.3l1.64-3,.66,3Zm-.21-1-.27-1.3-.69,1.3Z"/><path class="cls-1" d="M44,35a1.49,1.49,0,0,1-.37.45,1.53,1.53,0,0,1-.47.29,1.32,1.32,0,0,1-.55.11h-.68l.46-2.83h.69a1.26,1.26,0,0,1,.51.11,1,1,0,0,1,.38.29,1,1,0,0,1,.21.45,1.35,1.35,0,0,1,0,.57A1.77,1.77,0,0,1,44,35Zm-.25-1.37a.87.87,0,0,0-.71-.32h-.43l-.37,2.25h.43a1.2,1.2,0,0,0,.81-.32,1.27,1.27,0,0,0,.45-.8A1,1,0,0,0,43.75,33.67Z"/><path class="cls-1" d="M44.42,35.89l.47-2.83h1.56l-.05.27H45.11l-.16,1H46.2l-.05.27H44.9l-.16,1H46l-.05.27Z"/><path class="cls-1" d="M48.29,33.33l-.16,1h1.25l-.05.27H48.08l-.21,1.28H47.6l.47-2.83h1.55l0,.27Z"/><path class="cls-1" d="M49.53,35.89,50,33.06h1.56l0,.27H50.22l-.17,1H51.3l0,.27H50l-.17,1h1.29l0,.27Z"/><path class="cls-1" d="M53.73,35a1.62,1.62,0,0,1-.36.45,1.53,1.53,0,0,1-.47.29,1.32,1.32,0,0,1-.55.11h-.69l.47-2.83h.68a1.27,1.27,0,0,1,.52.11,1,1,0,0,1,.38.29,1,1,0,0,1,.21.45,1.35,1.35,0,0,1,0,.57A1.56,1.56,0,0,1,53.73,35Zm-.24-1.37a.89.89,0,0,0-.72-.32h-.42L52,35.6h.43a1.2,1.2,0,0,0,.81-.32,1.27,1.27,0,0,0,.45-.8A1,1,0,0,0,53.49,33.67Z"/><path class="cls-1" d="M54.16,35.89l.47-2.83h1.56l0,.27H54.85l-.16,1h1.25l0,.27H54.64l-.16,1h1.29l-.05.27Z"/><path class="cls-1" d="M58,34.53a.92.92,0,0,1-.56.24L58,35.89h-.37l-.58-1.12h-.32l-.18,1.12H56.3l.46-2.83h.84a.66.66,0,0,1,.55.24.71.71,0,0,1,.15.61A1,1,0,0,1,58,34.53Zm-.54,0a.57.57,0,0,0,.4-.16.78.78,0,0,0,.22-.42A.51.51,0,0,0,58,33.5a.38.38,0,0,0-.35-.16H57l-.19,1.15Z"/><path class="cls-1" d="M60.16,35.89,60,35.12H58.85l-.41.77h-.29l1.65-3,.65,3Zm-.21-1-.27-1.3L59,34.85Z"/><path class="cls-1" d="M62,35.6l-.05.29h-1.2l.46-2.83h.27L61.1,35.6Z"/><path class="cls-1" d="M65.46,35a1.62,1.62,0,0,1-.36.45,1.47,1.47,0,0,1-.48.29,1.24,1.24,0,0,1-.54.11h-.69l.47-2.83h.68a1.19,1.19,0,0,1,.51.11.92.92,0,0,1,.38.29,1.06,1.06,0,0,1,.22.45,1.54,1.54,0,0,1,0,.57A1.56,1.56,0,0,1,65.46,35Zm-.25-1.37a.86.86,0,0,0-.71-.32h-.42l-.37,2.25h.42a1.21,1.21,0,0,0,.82-.32,1.27,1.27,0,0,0,.45-.8A1,1,0,0,0,65.21,33.67Z"/><path class="cls-1" d="M65.89,35.89l.47-2.83h1.55l0,.27H66.58l-.16,1h1.25l0,.27H66.37l-.16,1h1.28l0,.27Z"/><path class="cls-1" d="M69.34,33.81a.84.84,0,0,1,.35-.59,1.08,1.08,0,0,1,.64-.2c.51,0,.78.2.81.61h-.29c0-.24-.2-.36-.56-.36a.69.69,0,0,0-.57.24.43.43,0,0,0-.09.23.36.36,0,0,0,.19.4,2.5,2.5,0,0,0,.5.19,1.36,1.36,0,0,1,.54.25.54.54,0,0,1,.16.53.89.89,0,0,1-.42.65,1.25,1.25,0,0,1-.68.18c-.58,0-.87-.23-.89-.71h.32c0,.3.21.45.62.45a.81.81,0,0,0,.66-.27.61.61,0,0,0,.11-.27.32.32,0,0,0-.08-.29,1.36,1.36,0,0,0-.64-.29C69.5,34.42,69.28,34.17,69.34,33.81Z"/><path class="cls-1" d="M73,35.89l-.15-.77H71.73l-.4.77H71l1.65-3,.66,3Zm-.21-1-.26-1.3-.69,1.3Zm-.55-2.52a.36.36,0,0,1,.23-.08.38.38,0,0,1,.21,0,.47.47,0,0,1,.09.12,1,1,0,0,0,.08.11.11.11,0,0,0,.1.06.16.16,0,0,0,.11,0,.09.09,0,0,0,.06-.06.51.51,0,0,0,0-.2h.19a.63.63,0,0,1-.2.44.36.36,0,0,1-.24.08.36.36,0,0,1-.21,0l-.1-.12-.07-.12a.17.17,0,0,0-.12-.05q-.12,0-.18.15a.32.32,0,0,0,0,.14h-.19A.71.71,0,0,1,72.28,32.33Z"/><path class="cls-1" d="M76.28,35a1.78,1.78,0,0,1-.85.78,1.31,1.31,0,0,1-.54.11,1.06,1.06,0,0,1-.51-.11A1.12,1.12,0,0,1,74,35.5a1.36,1.36,0,0,1-.22-.47,1.49,1.49,0,0,1,0-.56,1.69,1.69,0,0,1,.2-.57,1.84,1.84,0,0,1,.36-.46,1.79,1.79,0,0,1,.48-.31,1.32,1.32,0,0,1,.54-.12,1.07,1.07,0,0,1,.51.12,1,1,0,0,1,.38.31,1.14,1.14,0,0,1,.21.46,1.55,1.55,0,0,1,0,.57A1.78,1.78,0,0,1,76.28,35ZM76,33.65a.81.81,0,0,0-.7-.34,1.18,1.18,0,0,0-.82.34,1.35,1.35,0,0,0-.45.82,1,1,0,0,0,.18.82.85.85,0,0,0,.71.34,1.19,1.19,0,0,0,.82-.34,1.49,1.49,0,0,0,.45-.82A1,1,0,0,0,76,33.65Z"/><path class="cls-1" d="M78.39,35.79a.92.92,0,0,1-.55.14.73.73,0,0,1-.22,0,.3.3,0,0,1-.13-.07l.05-.32a.47.47,0,0,0,.3.13.65.65,0,0,0,.39-.07.48.48,0,0,0,.25-.38l.35-2.13h.27l-.35,2.13A.88.88,0,0,1,78.39,35.79Z"/><path class="cls-1" d="M81.77,35a1.78,1.78,0,0,1-.85.78,1.24,1.24,0,0,1-.54.11,1,1,0,0,1-.5-.11,1.15,1.15,0,0,1-.38-.31,1.19,1.19,0,0,1-.21-.47,1.31,1.31,0,0,1,0-.56,1.94,1.94,0,0,1,.2-.57,1.67,1.67,0,0,1,.37-.46,1.52,1.52,0,0,1,.48-.31,1.25,1.25,0,0,1,.54-.12,1.06,1.06,0,0,1,.5.12,1,1,0,0,1,.38.31,1.31,1.31,0,0,1,.22.46A1.62,1.62,0,0,1,81.77,35Zm-.25-1.38a.85.85,0,0,0-.71-.34,1.18,1.18,0,0,0-.82.34,1.35,1.35,0,0,0-.45.82,1,1,0,0,0,.18.82.85.85,0,0,0,.71.34,1.18,1.18,0,0,0,.82-.34,1.37,1.37,0,0,0,.45-.82A1,1,0,0,0,81.52,33.65Z"/><path class="cls-1" d="M84,35.89l-.16-.77H82.65l-.41.77H82l1.65-3,.65,3Zm-.21-1-.27-1.3-.69,1.3Zm-.56-2.52a.36.36,0,0,1,.24-.08.34.34,0,0,1,.2,0l.1.12.07.11a.13.13,0,0,0,.11.06.2.2,0,0,0,.11,0,.17.17,0,0,0,.06-.06,1.82,1.82,0,0,0,0-.2h.19a.63.63,0,0,1-.2.44.41.41,0,0,1-.24.08.36.36,0,0,1-.21,0,.53.53,0,0,1-.1-.12l-.08-.12a.13.13,0,0,0-.11-.05.18.18,0,0,0-.18.15.57.57,0,0,0,0,.14H83A.66.66,0,0,1,83.19,32.33Z"/><path class="cls-1" d="M87.19,35a1.89,1.89,0,0,1-.36.47,2.07,2.07,0,0,1-.48.31,1.32,1.32,0,0,1-.55.11,1,1,0,0,1-.5-.11,1.15,1.15,0,0,1-.38-.31,1.19,1.19,0,0,1-.21-.47,1.48,1.48,0,0,1,0-.56,1.94,1.94,0,0,1,.2-.57,1.87,1.87,0,0,1,.37-.46,1.52,1.52,0,0,1,.48-.31,1.25,1.25,0,0,1,.54-.12,1.06,1.06,0,0,1,.5.12,1,1,0,0,1,.38.31,1,1,0,0,1,.22.46A1.62,1.62,0,0,1,87.19,35Zm-.25-1.38a.83.83,0,0,0-.71-.34,1.15,1.15,0,0,0-.81.34,1.35,1.35,0,0,0-.45.82,1,1,0,0,0,.18.82.81.81,0,0,0,.7.34,1.18,1.18,0,0,0,.82-.34,1.37,1.37,0,0,0,.45-.82A1,1,0,0,0,86.94,33.65Z"/><path class="cls-1" d="M90.73,35a1.62,1.62,0,0,1-.36.45,1.47,1.47,0,0,1-.48.29,1.24,1.24,0,0,1-.54.11h-.69l.47-2.83h.68a1.19,1.19,0,0,1,.51.11.92.92,0,0,1,.38.29,1.06,1.06,0,0,1,.22.45,1.54,1.54,0,0,1,0,.57A1.56,1.56,0,0,1,90.73,35Zm-.25-1.37a.87.87,0,0,0-.71-.32h-.42L89,35.6h.42a1.21,1.21,0,0,0,.82-.32,1.27,1.27,0,0,0,.45-.8A1,1,0,0,0,90.48,33.67Z"/><path class="cls-1" d="M91.16,35.89l.46-2.83h1.56l0,.27H91.85l-.16,1h1.25l0,.27H91.64l-.16,1h1.28l0,.27Z"/><path class="cls-1" d="M94.55,35.6l0,.29H93.3l.46-2.83H94l-.41,2.54Z"/><path class="cls-1" d="M97.56,34.53a.91.91,0,0,1-.55.24l.62,1.12h-.36l-.59-1.12h-.31l-.19,1.12h-.27l.47-2.83h.84a.69.69,0,0,1,.55.24.74.74,0,0,1,.14.61A1,1,0,0,1,97.56,34.53Zm-.54,0a.55.55,0,0,0,.4-.16.78.78,0,0,0,.22-.42.55.55,0,0,0-.07-.41.41.41,0,0,0-.36-.16H96.6l-.19,1.15Z"/><path class="cls-1" d="M98,35.89l.46-2.83H100l0,.27H98.7l-.17,1h1.25l0,.27H98.49l-.17,1h1.29l0,.27Z"/><path class="cls-1" d="M100.25,35.88l.46-2.83H101l-.46,2.83Z"/><path class="cls-2" d="M95.54,34.68h-.83l.09-.24h.83Z"/><path class="cls-1" d="M.06,25.62c.43-.45,1.08-1.08,1.9-1.79A12.76,12.76,0,0,1,5.1,21.55c1-.47,2.06-.93,2.81-.57,1.12.55,1.43,2.88.66,5.73a78.87,78.87,0,0,0,8.71-9.79,9.74,9.74,0,0,0,2-4.77A5.08,5.08,0,0,0,18.6,8.7a4.24,4.24,0,0,0-1.29-1.23A10.07,10.07,0,0,1,16.76,13a6.49,6.49,0,0,1-1.67,2.51A6.62,6.62,0,0,1,12.53,17,20.33,20.33,0,0,1,9,17.55a16.93,16.93,0,0,0-2.86.69A9.77,9.77,0,0,0,.8,23,8.87,8.87,0,0,0,.06,25.62Z"/><path class="cls-1" d="M7.37,39.27A17,17,0,0,0,9.3,36.11a17,17,0,0,0,1.53-5.4,13.75,13.75,0,0,1-3.51,3.42,14,14,0,0,1-5.5,2.2q3.26-3.7,6.55-7.39l5.9-6.57a19.33,19.33,0,0,1,.61,4.83,15.11,15.11,0,0,1-1.27,6.6A9.45,9.45,0,0,1,10.33,38,8.43,8.43,0,0,1,7.37,39.27Z"/><path class="cls-1" d="M9.9,12.65a2.67,2.67,0,0,1,1.33-1.56A2.25,2.25,0,0,1,13.36,11a1.94,1.94,0,0,1,.82,1.14,2.55,2.55,0,0,1-1,2.49,2.29,2.29,0,0,1-1.81.6A2,2,0,0,1,10,14.33,2.11,2.11,0,0,1,9.9,12.65Z"/><rect class="cls-3" width="143.59" height="44.74"/></g></g></svg>