<svg xmlns="http://www.w3.org/2000/svg" xmlns:xlink="http://www.w3.org/1999/xlink" viewBox="0 0 143.59 44.74"><defs><style>.cls-1{fill:#524595;}.cls-2{fill:#575757;}.cls-3{fill:url(#Gradiente_sem_nome_89);}.cls-4{fill:url(#Gradiente_sem_nome_91);}.cls-5{fill:url(#Gradiente_sem_nome_90);}.cls-6{fill:none;}</style><linearGradient id="Gradiente_sem_nome_89" x1="23.42" y1="15.84" x2="-6.27" y2="16.21" gradientUnits="userSpaceOnUse"><stop offset="0" stop-color="#524595"/><stop offset="0.25" stop-color="#72458a"/><stop offset="0.78" stop-color="#c3466d"/><stop offset="1" stop-color="#e54661"/></linearGradient><linearGradient id="Gradiente_sem_nome_91" x1="25.73" y1="13.36" x2="3.37" y2="39.26" gradientUnits="userSpaceOnUse"><stop offset="0.32" stop-color="#524595"/><stop offset="0.59" stop-color="#8f457f"/><stop offset="1" stop-color="#e54661"/></linearGradient><linearGradient id="Gradiente_sem_nome_90" x1="17.05" y1="5.66" x2="-5.31" y2="31.55" gradientUnits="userSpaceOnUse"><stop offset="0" stop-color="#524595"/><stop offset="0.4" stop-color="#8f457f"/><stop offset="1" stop-color="#e54661"/></linearGradient></defs><g id="Camada_2" data-name="Camada 2"><g id="Camada_1-2" data-name="Camada 1"><polygon class="cls-1" points="32.28 25.66 26.71 17.01 25.47 24.19 23.27 24.19 25.58 10.8 31.15 19.46 32.39 12.26 34.59 12.26 32.28 25.66"/><path class="cls-1" d="M38.2,24.43a3.76,3.76,0,0,1-3-1.35,4,4,0,0,1-.77-3.25l1.3-7.57H38l-1.3,7.57a1.93,1.93,0,0,0,1.93,2.37,2.92,2.92,0,0,0,2.77-2.37l1.31-7.57h2.2l-1.31,7.57a5.59,5.59,0,0,1-1.89,3.25A5.35,5.35,0,0,1,38.2,24.43Z"/><polygon class="cls-1" points="48.44 24.19 46.24 24.19 47.91 14.48 44.66 14.48 45.04 12.26 53.76 12.26 53.38 14.48 50.11 14.48 48.44 24.19"/><path class="cls-1" d="M58.83,19.69a4.75,4.75,0,0,0,3.23-3.64,3.05,3.05,0,0,0-3-3.79h-5L52,24.19h2.2l1-5.57.17-1h0l.54-3.14h2.78a1.24,1.24,0,0,1,1.17,1.57,2,2,0,0,1-1.71,1.57H56.31l-.38,2.07L59,24.19h2.89Z"/><path class="cls-1" d="M66.91,24.43a5.42,5.42,0,0,1-2.3-.49,4.78,4.78,0,0,1-1.72-1.33,5,5,0,0,1-1-2,5.72,5.72,0,0,1-.07-2.41,7.17,7.17,0,0,1,.9-2.42,8,8,0,0,1,1.65-2,7.69,7.69,0,0,1,2.18-1.33A6.62,6.62,0,0,1,69.05,12a5.3,5.3,0,0,1,2.3.49,4.77,4.77,0,0,1,1.71,1.32,5,5,0,0,1,1,2,5.77,5.77,0,0,1,.06,2.42,6.91,6.91,0,0,1-.9,2.41,7.93,7.93,0,0,1-3.82,3.3A6.63,6.63,0,0,1,66.91,24.43Zm1.75-10.18a4.61,4.61,0,0,0-3,1.17,4.78,4.78,0,0,0-1.64,2.81,3.39,3.39,0,0,0,.66,2.8,3.24,3.24,0,0,0,2.58,1.17,4.62,4.62,0,0,0,3-1.16,4.79,4.79,0,0,0,1.63-2.81,3.43,3.43,0,0,0-.66-2.81A3.27,3.27,0,0,0,68.66,14.25Z"/><polygon class="cls-1" points="80.97 24.19 73.78 24.19 75.84 12.26 78.03 12.26 76.36 21.97 81.35 21.97 80.97 24.19"/><polygon class="cls-1" points="83.5 24.19 81.3 24.19 83.36 12.26 85.56 12.26 83.5 24.19"/><path class="cls-1" d="M90.29,24.43A5.63,5.63,0,0,1,88.06,24a4.72,4.72,0,0,1-1.79-1.36,4.92,4.92,0,0,1-1-2,5.94,5.94,0,0,1,0-2.34,7.35,7.35,0,0,1,.85-2.34,8.15,8.15,0,0,1,1.7-2.05A7.69,7.69,0,0,1,90,12.48a6.1,6.1,0,0,1,4.62,0,4.83,4.83,0,0,1,1.8,1.36l.39.49L95,15.9l-.39-.48A3.27,3.27,0,0,0,92,14.25a4.54,4.54,0,0,0-3,1.16,4.83,4.83,0,0,0-1.64,2.82A3.48,3.48,0,0,0,88.08,21a3.28,3.28,0,0,0,2.59,1.16,4.6,4.6,0,0,0,3-1.16,5.09,5.09,0,0,0,1.29-1.71H90.49l.38-2.22h6.72l0,.61c0,.17,0,.34-.06.49A7.14,7.14,0,0,1,97,19.89a7.65,7.65,0,0,1-2,2.72A7.56,7.56,0,0,1,92.68,24,6.88,6.88,0,0,1,90.29,24.43Z"/><path class="cls-1" d="M106.5,24.19h-2.4l-.64-2.53H99.13l-1.51,2.53H95.23L103.14,11Zm-6-4.75h2.44l-.74-2.86Z"/><path class="cls-2" d="M23.73,29.93l0,.29H22.48l.46-2.84h.27l-.41,2.55Z"/><path class="cls-2" d="M24.05,30.22l.47-2.84h.27l-.47,2.84Z"/><path class="cls-2" d="M27.66,29.07a1.73,1.73,0,0,1-.61.85,1.5,1.5,0,0,1-.91.33,1.19,1.19,0,0,1-.51-.11,1.07,1.07,0,0,1-.38-.32,1.14,1.14,0,0,1-.21-.46,1.36,1.36,0,0,1,0-.57,1.94,1.94,0,0,1,.2-.57,1.87,1.87,0,0,1,.37-.47,1.72,1.72,0,0,1,.48-.31,1.43,1.43,0,0,1,.52-.11,1.08,1.08,0,0,1,.78.29,1.13,1.13,0,0,1,.37.75h-.28a1,1,0,0,0-.31-.55.93.93,0,0,0-.58-.2,1.16,1.16,0,0,0-.82.34,1.44,1.44,0,0,0-.46.83,1,1,0,0,0,.18.82.85.85,0,0,0,.71.35,1.2,1.2,0,0,0,.69-.22,1.51,1.51,0,0,0,.5-.59H26.3l.05-.26h1.37Z"/><path class="cls-2" d="M29.52,30.22l-.15-.77H28.21l-.41.77h-.29l1.65-3,.66,3Zm-.21-1-.26-1.31-.69,1.31Z"/><path class="cls-2" d="M33,30.22l-.15-.77H31.64l-.41.77h-.29l1.65-3,.65,3Zm-.21-1-.26-1.31-.7,1.31Z"/><path class="cls-2" d="M35.37,30a1.36,1.36,0,0,1-.78.25,1,1,0,0,1-.86-.43,1.38,1.38,0,0,1-.21-1,2,2,0,0,1,.19-.56,2,2,0,0,1,.36-.46,1.43,1.43,0,0,1,1-.44,1.09,1.09,0,0,1,.7.25,1.21,1.21,0,0,1,.37.65h-.3a.85.85,0,0,0-.54-.55,1,1,0,0,0-.32-.05.94.94,0,0,0-.38.1,1.15,1.15,0,0,0-.37.25,1.45,1.45,0,0,0-.44.81,1.05,1.05,0,0,0,.17.81.81.81,0,0,0,.68.35,1.08,1.08,0,0,0,.57-.17,1.45,1.45,0,0,0,.45-.44H36A1.79,1.79,0,0,1,35.37,30Z"/><path class="cls-2" d="M37.82,30.22l-.15-.77H36.51l-.41.77h-.29l1.65-3,.65,3Zm-.21-1-.26-1.31-.7,1.31Z"/><path class="cls-2" d="M40.52,29.37a1.78,1.78,0,0,1-.37.45,1.75,1.75,0,0,1-.47.29,1.5,1.5,0,0,1-.55.11h-.69l.47-2.84h.69a1.26,1.26,0,0,1,.51.11,1.1,1.1,0,0,1,.38.29,1.17,1.17,0,0,1,.21.45,1.35,1.35,0,0,1,0,.57A1.75,1.75,0,0,1,40.52,29.37ZM40.27,28a.87.87,0,0,0-.71-.32h-.43l-.37,2.26h.43a1.2,1.2,0,0,0,.81-.32,1.32,1.32,0,0,0,.45-.81A1,1,0,0,0,40.27,28Z"/><path class="cls-2" d="M41,30.22l.46-2.84H43l0,.27H41.64l-.17,1h1.25l0,.28H41.43l-.17,1h1.29l0,.27Zm1-3.13h-.27l.52-.6h.26l.32.6h-.27l-.21-.44Z"/><path class="cls-2" d="M45.43,28.2l-1.14,2.19-.44-2.19-.73,2h-.28l1.11-3,.46,2.43,1.26-2.43.12,3h-.28Z"/><path class="cls-2" d="M46.11,30.22l.47-2.84h.27l-.46,2.84Z"/><path class="cls-2" d="M48.93,30a1.36,1.36,0,0,1-.78.25,1,1,0,0,1-.86-.43,1.38,1.38,0,0,1-.21-1,2,2,0,0,1,.19-.56,2,2,0,0,1,.36-.46,1.43,1.43,0,0,1,1-.44,1,1,0,0,1,.69.25,1.17,1.17,0,0,1,.38.65h-.3a.84.84,0,0,0-.55-.55.91.91,0,0,0-.31-.05.94.94,0,0,0-.38.1,1.32,1.32,0,0,0-.38.25,1.43,1.43,0,0,0-.43.81,1,1,0,0,0,.17.81.8.8,0,0,0,.68.35,1.08,1.08,0,0,0,.57-.17,1.45,1.45,0,0,0,.45-.44h.3A1.79,1.79,0,0,1,48.93,30Z"/><path class="cls-2" d="M51.38,30.22l-.16-.77H50.07l-.41.77h-.3l1.66-3,.65,3Zm-.21-1-.26-1.31-.7,1.31Z"/><path class="cls-2" d="M55.12,29.37a2,2,0,0,1-.36.45,1.81,1.81,0,0,1-.48.29,1.5,1.5,0,0,1-.55.11H53l.47-2.84h.69a1.23,1.23,0,0,1,.51.11,1.1,1.1,0,0,1,.38.29,1.17,1.17,0,0,1,.21.45,1.35,1.35,0,0,1,0,.57A1.75,1.75,0,0,1,55.12,29.37ZM54.87,28a.87.87,0,0,0-.71-.32h-.43l-.37,2.26h.43a1.2,1.2,0,0,0,.81-.32,1.32,1.32,0,0,0,.45-.81A.94.94,0,0,0,54.87,28Z"/><path class="cls-2" d="M55.55,30.22,56,27.38h1.56l0,.27H56.24l-.17,1h1.26l0,.28H56l-.17,1h1.29l0,.27Z"/><path class="cls-2" d="M59,30.22h-.27l.5-3,1.1,2.27.34-2.09h.27l-.49,3-1.1-2.26Z"/><path class="cls-2" d="M62.72,30a1.16,1.16,0,0,1-.74.25.76.76,0,0,1-.82-1l.31-1.9h.27l-.32,1.94a.51.51,0,0,0,.13.49A.69.69,0,0,0,62,30a.76.76,0,0,0,.7-.35.76.76,0,0,0,.11-.29l.32-1.94h.27l-.31,1.9A1.18,1.18,0,0,1,62.72,30Z"/><path class="cls-2" d="M63.74,27.37h1.54l0,.27H64.6l-.42,2.57h-.27l.42-2.57h-.64Z"/><path class="cls-2" d="M66.84,28.86a.93.93,0,0,1-.56.23l.62,1.13h-.36L66,29.1h-.31l-.19,1.12h-.27l.47-2.84h.84a.68.68,0,0,1,.55.24.74.74,0,0,1,.15.62A1.05,1.05,0,0,1,66.84,28.86Zm-.55,0a.58.58,0,0,0,.41-.17.75.75,0,0,0,.22-.42.55.55,0,0,0-.08-.41.41.41,0,0,0-.36-.16h-.61l-.19,1.16Z"/><path class="cls-2" d="M69.91,29.36a1.87,1.87,0,0,1-.37.46,1.55,1.55,0,0,1-.48.32,1.5,1.5,0,0,1-.55.11,1.18,1.18,0,0,1-.5-.11,1.07,1.07,0,0,1-.38-.32,1.14,1.14,0,0,1-.21-.46,1.55,1.55,0,0,1,0-.57,1.94,1.94,0,0,1,.2-.57,1.83,1.83,0,0,1,.37-.46,1.72,1.72,0,0,1,.48-.31,1.27,1.27,0,0,1,.54-.11,1.06,1.06,0,0,1,.51.11,1.15,1.15,0,0,1,.38.31,1.21,1.21,0,0,1,.21.46,1.55,1.55,0,0,1,0,.57A1.94,1.94,0,0,1,69.91,29.36ZM69.65,28a.83.83,0,0,0-.71-.34,1.15,1.15,0,0,0-.81.34,1.44,1.44,0,0,0-.46.82,1,1,0,0,0,.19.83.83.83,0,0,0,.7.34,1.18,1.18,0,0,0,.82-.34,1.47,1.47,0,0,0,.46-.83A1,1,0,0,0,69.65,28Z"/><path class="cls-2" d="M71.59,29.93l0,.29H70.34l.46-2.84h.27l-.42,2.55Z"/><path class="cls-2" d="M74.34,29.36a1.83,1.83,0,0,1-.84.78,1.5,1.5,0,0,1-.55.11,1.18,1.18,0,0,1-.5-.11,1,1,0,0,1-.38-.32,1.31,1.31,0,0,1-.22-.46,1.55,1.55,0,0,1,0-.57,1.69,1.69,0,0,1,.2-.57,1.83,1.83,0,0,1,.37-.46,1.72,1.72,0,0,1,.48-.31,1.24,1.24,0,0,1,.54-.11,1.12,1.12,0,0,1,.51.11,1.26,1.26,0,0,1,.38.31,1.21,1.21,0,0,1,.21.46,1.36,1.36,0,0,1,0,.57A1.69,1.69,0,0,1,74.34,29.36ZM74.09,28a.83.83,0,0,0-.71-.34,1.18,1.18,0,0,0-.82.34,1.37,1.37,0,0,0-.45.82,1.07,1.07,0,0,0,.18.83A.85.85,0,0,0,73,30a1.18,1.18,0,0,0,.82-.34,1.4,1.4,0,0,0,.45-.83A1,1,0,0,0,74.09,28Z"/><path class="cls-2" d="M77.53,29.07a1.79,1.79,0,0,1-.61.85,1.51,1.51,0,0,1-.92.33,1.18,1.18,0,0,1-.5-.11,1,1,0,0,1-.38-.32,1.31,1.31,0,0,1-.22-.46,1.55,1.55,0,0,1,0-.57,1.69,1.69,0,0,1,.2-.57,1.87,1.87,0,0,1,.37-.47,1.72,1.72,0,0,1,.48-.31,1.43,1.43,0,0,1,.52-.11,1.08,1.08,0,0,1,.78.29,1.17,1.17,0,0,1,.37.75h-.29a.88.88,0,0,0-.88-.75,1.2,1.2,0,0,0-.83.34,1.42,1.42,0,0,0-.45.83,1,1,0,0,0,.18.82.84.84,0,0,0,.71.35,1.2,1.2,0,0,0,.69-.22,1.6,1.6,0,0,0,.5-.59H76.17l0-.26h1.36Z"/><path class="cls-2" d="M77.83,30.22l.46-2.84h.27l-.46,2.84Z"/><path class="cls-2" d="M80.44,30.22l-.15-.77H79.13l-.41.77h-.29l1.65-3,.66,3Zm-.21-1L80,27.87l-.69,1.31Z"/><path class="cls-2" d="M84.18,29.37a2,2,0,0,1-.36.45,1.66,1.66,0,0,1-.48.29,1.45,1.45,0,0,1-.54.11h-.69l.46-2.84h.69a1.19,1.19,0,0,1,.51.11,1,1,0,0,1,.38.29,1.18,1.18,0,0,1,.22.45,1.66,1.66,0,0,1-.19,1.14ZM83.93,28a.87.87,0,0,0-.71-.32H82.8l-.37,2.26h.42a1.21,1.21,0,0,0,.82-.32,1.32,1.32,0,0,0,.45-.81A1,1,0,0,0,83.93,28Z"/><path class="cls-2" d="M86.21,30.22l-.16-.77H84.9l-.41.77h-.3l1.66-3,.65,3Zm-.21-1-.26-1.31L85,29.18Z"/><path class="cls-2" d="M23.22,34.6a1.11,1.11,0,0,1-.74.25.82.82,0,0,1-.66-.25.84.84,0,0,1-.16-.73L22,32h.27l-.32,1.94a.55.55,0,0,0,.13.5.69.69,0,0,0,.48.15.78.78,0,0,0,.7-.35.67.67,0,0,0,.11-.3L23.66,32h.27l-.31,1.9A1.18,1.18,0,0,1,23.22,34.6Z"/><path class="cls-2" d="M24.26,34.81H24l.5-3,1.1,2.27L25.93,32h.27l-.5,3-1.1-2.27Z"/><path class="cls-2" d="M26.31,34.81,26.78,32h.27l-.47,2.84Z"/><path class="cls-2" d="M27.37,32h.3l.53,2.29L29.47,32h.29l-1.68,3Z"/><path class="cls-2" d="M29.62,34.81,30.09,32h1.56l0,.28h-1.3l-.16,1H31.4l0,.28H30.1l-.16,1h1.29l0,.27Z"/><path class="cls-2" d="M33.42,33.45a1,1,0,0,1-.56.24l.62,1.12h-.36l-.59-1.12h-.31L32,34.81h-.28L32.23,32h.84a.66.66,0,0,1,.55.24.74.74,0,0,1,.15.62A1,1,0,0,1,33.42,33.45Zm-.54,0a.58.58,0,0,0,.4-.17.72.72,0,0,0,.22-.42.56.56,0,0,0-.08-.41.44.44,0,0,0-.36-.16h-.61l-.19,1.16Z"/><path class="cls-2" d="M34.13,32.73a.88.88,0,0,1,.36-.6,1.15,1.15,0,0,1,.64-.2c.51,0,.78.21.81.62h-.29c0-.24-.2-.37-.56-.37a.67.67,0,0,0-.57.25.4.4,0,0,0-.09.23.36.36,0,0,0,.19.4,2.1,2.1,0,0,0,.5.18,1.71,1.71,0,0,1,.54.25.54.54,0,0,1,.16.54.86.86,0,0,1-.42.65,1.26,1.26,0,0,1-.68.19c-.58,0-.88-.24-.89-.72h.32c0,.3.21.45.62.45a.81.81,0,0,0,.66-.27.61.61,0,0,0,.11-.28.31.31,0,0,0-.08-.28,1.46,1.46,0,0,0-.64-.3C34.3,33.34,34.08,33.09,34.13,32.73Z"/><path class="cls-2" d="M36.09,34.81,36.55,32h.27l-.46,2.84Z"/><path class="cls-2" d="M39,34a1.62,1.62,0,0,1-.36.45,1.47,1.47,0,0,1-.48.29,1.32,1.32,0,0,1-.55.11h-.68L37.4,32h.69a1.19,1.19,0,0,1,.51.11,1.1,1.1,0,0,1,.38.29,1.35,1.35,0,0,1,.22.45A1.66,1.66,0,0,1,39,34Zm-.25-1.38a.86.86,0,0,0-.71-.31h-.43l-.37,2.25h.43a1.23,1.23,0,0,0,.82-.32,1.37,1.37,0,0,0,.45-.81A1,1,0,0,0,38.76,32.58Z"/><path class="cls-2" d="M41,34.81,40.88,34H39.73l-.41.77H39l1.66-3,.65,3Zm-.21-1-.27-1.31-.69,1.31Z"/><path class="cls-2" d="M43.73,34a1.62,1.62,0,0,1-.36.45,1.47,1.47,0,0,1-.48.29,1.27,1.27,0,0,1-.54.11h-.69L42.12,32h.69a1.19,1.19,0,0,1,.51.11,1,1,0,0,1,.38.29,1.05,1.05,0,0,1,.22.45,1.36,1.36,0,0,1,0,.57A1.55,1.55,0,0,1,43.73,34Zm-.25-1.38a.86.86,0,0,0-.71-.31h-.42L42,34.52h.42a1.21,1.21,0,0,0,.82-.32,1.27,1.27,0,0,0,.45-.81A1,1,0,0,0,43.48,32.58Z"/><path class="cls-2" d="M44.16,34.81,44.63,32h1.56l0,.28h-1.3l-.16,1h1.25l0,.28H44.64l-.16,1h1.29l-.05.27Z"/><path class="cls-2" d="M48,32.25l-.17,1h1.26l-.05.28H47.83l-.21,1.28h-.27L47.81,32h1.56l0,.28Z"/><path class="cls-2" d="M49.28,34.81,49.74,32H51.3l0,.28H50l-.17,1h1.25l0,.28H49.76l-.17,1h1.29l0,.27Z"/><path class="cls-2" d="M53.49,34a1.62,1.62,0,0,1-.36.45,1.47,1.47,0,0,1-.48.29,1.27,1.27,0,0,1-.54.11h-.69L51.88,32h.69a1.19,1.19,0,0,1,.51.11,1,1,0,0,1,.38.29,1.18,1.18,0,0,1,.22.45A1.66,1.66,0,0,1,53.49,34Zm-.25-1.38a.86.86,0,0,0-.71-.31H52.1l-.36,2.25h.42A1.23,1.23,0,0,0,53,34.2a1.27,1.27,0,0,0,.45-.81A1,1,0,0,0,53.24,32.58Z"/><path class="cls-2" d="M53.92,34.81,54.39,32H56l-.05.28H54.61l-.16,1H55.7l-.05.28H54.4l-.16,1h1.29l-.05.27Z"/><path class="cls-2" d="M57.72,33.45a1,1,0,0,1-.56.24l.62,1.12h-.36l-.59-1.12h-.31l-.19,1.12h-.27L56.53,32h.84a.68.68,0,0,1,.55.24.74.74,0,0,1,.15.62A1.08,1.08,0,0,1,57.72,33.45Zm-.55,0a.58.58,0,0,0,.41-.17.72.72,0,0,0,.22-.42.56.56,0,0,0-.08-.41.44.44,0,0,0-.36-.16h-.61l-.19,1.16Z"/><path class="cls-2" d="M59.93,34.81,59.77,34H58.62l-.41.77h-.3l1.66-3,.65,3Zm-.21-1-.27-1.31-.69,1.31Z"/><path class="cls-2" d="M61.81,34.52l-.05.29H60.55L61,32h.28l-.42,2.55Z"/><path class="cls-2" d="M65.24,34a1.46,1.46,0,0,1-.36.45,1.53,1.53,0,0,1-.47.29,1.32,1.32,0,0,1-.55.11h-.69L63.64,32h.68a1.27,1.27,0,0,1,.52.11,1.1,1.1,0,0,1,.38.29,1.17,1.17,0,0,1,.21.45,1.36,1.36,0,0,1,0,.57A1.55,1.55,0,0,1,65.24,34ZM65,32.58a.88.88,0,0,0-.72-.31h-.42l-.37,2.25h.42a1.21,1.21,0,0,0,.82-.32,1.27,1.27,0,0,0,.45-.81A1,1,0,0,0,65,32.58Z"/><path class="cls-2" d="M65.68,34.81,66.14,32H67.7l0,.28H66.37l-.17,1h1.25l0,.28H66.16l-.17,1h1.29l0,.27Z"/><path class="cls-2" d="M69.13,32.73a.84.84,0,0,1,.35-.6,1.16,1.16,0,0,1,.65-.2c.51,0,.78.21.81.62h-.3c0-.24-.2-.37-.56-.37a.67.67,0,0,0-.57.25.4.4,0,0,0-.09.23.36.36,0,0,0,.19.4,2.3,2.3,0,0,0,.5.18,1.51,1.51,0,0,1,.54.25.57.57,0,0,1,.17.54.92.92,0,0,1-.42.65,1.31,1.31,0,0,1-.68.19c-.59,0-.88-.24-.9-.72h.32c0,.3.21.45.62.45a.81.81,0,0,0,.66-.27.52.52,0,0,0,.11-.28.28.28,0,0,0-.08-.28,1.4,1.4,0,0,0-.64-.3C69.3,33.34,69.07,33.09,69.13,32.73Z"/><path class="cls-2" d="M72.84,34.81,72.69,34H71.53l-.41.77h-.29l1.65-3,.65,3Zm-.21-1-.26-1.31-.7,1.31Zm-.56-2.52a.34.34,0,0,1,.24-.09.28.28,0,0,1,.2.06.35.35,0,0,1,.1.11l.08.12a.12.12,0,0,0,.1.05l.11,0a.17.17,0,0,0,.06-.06.57.57,0,0,0,.05-.21h.19a.61.61,0,0,1-.2.44.32.32,0,0,1-.24.08.36.36,0,0,1-.21-.05.4.4,0,0,1-.1-.12l-.07-.11a.14.14,0,0,0-.12-.06.19.19,0,0,0-.18.15.32.32,0,0,0,0,.14h-.19A.68.68,0,0,1,72.07,31.25Z"/><path class="cls-2" d="M76.08,34a2.09,2.09,0,0,1-.36.47,2.07,2.07,0,0,1-.48.31,1.32,1.32,0,0,1-.55.11,1,1,0,0,1-.5-.11,1.06,1.06,0,0,1-.38-.31,1.45,1.45,0,0,1-.22-.47,1.62,1.62,0,0,1,.19-1.13,1.78,1.78,0,0,1,.85-.78,1.41,1.41,0,0,1,.54-.11,1.08,1.08,0,0,1,.89.42,1.19,1.19,0,0,1,.21.47,1.31,1.31,0,0,1,0,.56A1.69,1.69,0,0,1,76.08,34Zm-.25-1.39a.83.83,0,0,0-.71-.34,1.18,1.18,0,0,0-.82.34,1.37,1.37,0,0,0-.45.82,1.06,1.06,0,0,0,.18.83.85.85,0,0,0,.71.34,1.18,1.18,0,0,0,.82-.34,1.37,1.37,0,0,0,.45-.83A1,1,0,0,0,75.83,32.56Z"/><path class="cls-2" d="M78.2,34.71a.92.92,0,0,1-.55.14.73.73,0,0,1-.22,0,.45.45,0,0,1-.14-.07l.06-.32a.47.47,0,0,0,.3.13.65.65,0,0,0,.39-.07.5.5,0,0,0,.25-.38L78.64,32h.27l-.35,2.14A.85.85,0,0,1,78.2,34.71Z"/><path class="cls-2" d="M81.59,34a2.13,2.13,0,0,1-.37.47,1.72,1.72,0,0,1-.48.31,1.32,1.32,0,0,1-.55.11,1,1,0,0,1-.5-.11,1.15,1.15,0,0,1-.38-.31A1.26,1.26,0,0,1,79.1,34a1.55,1.55,0,0,1,0-.57,1.78,1.78,0,0,1,.2-.56,1.92,1.92,0,0,1,.37-.47,1.72,1.72,0,0,1,.48-.31,1.49,1.49,0,0,1,.54-.11,1.19,1.19,0,0,1,.51.11,1.15,1.15,0,0,1,.38.31,1.19,1.19,0,0,1,.21.47,1.48,1.48,0,0,1,0,.56A1.94,1.94,0,0,1,81.59,34Zm-.26-1.39a.83.83,0,0,0-.71-.34,1.15,1.15,0,0,0-.81.34,1.44,1.44,0,0,0-.46.82,1,1,0,0,0,.19.83.83.83,0,0,0,.7.34,1.18,1.18,0,0,0,.82-.34,1.44,1.44,0,0,0,.46-.83A1,1,0,0,0,81.33,32.56Z"/><path class="cls-2" d="M83.78,34.81,83.62,34H82.47l-.41.77h-.3l1.66-3,.65,3Zm-.21-1-.26-1.31-.7,1.31ZM83,31.25a.32.32,0,0,1,.24-.09.28.28,0,0,1,.2.06.52.52,0,0,1,.1.11.75.75,0,0,1,.07.12.14.14,0,0,0,.11.05l.11,0,.06-.06a.91.91,0,0,0,0-.21h.19a.61.61,0,0,1-.2.44.32.32,0,0,1-.24.08.36.36,0,0,1-.21-.05.29.29,0,0,1-.1-.12,1,1,0,0,0-.08-.11.11.11,0,0,0-.11-.06.18.18,0,0,0-.18.15.57.57,0,0,0,0,.14h-.19A.69.69,0,0,1,83,31.25Z"/><path class="cls-2" d="M87,34a2.09,2.09,0,0,1-.36.47,1.93,1.93,0,0,1-.49.31,1.27,1.27,0,0,1-.54.11,1.06,1.06,0,0,1-.51-.11,1.12,1.12,0,0,1-.37-.31,1.13,1.13,0,0,1-.22-.47,1.62,1.62,0,0,1,.19-1.13,1.89,1.89,0,0,1,.36-.47,2.07,2.07,0,0,1,.48-.31,1.5,1.5,0,0,1,.55-.11,1.18,1.18,0,0,1,.5.11,1.06,1.06,0,0,1,.38.31,1.2,1.2,0,0,1,.22.47,1.49,1.49,0,0,1,0,.56A1.69,1.69,0,0,1,87,34Zm-.25-1.39a.85.85,0,0,0-.71-.34,1.18,1.18,0,0,0-.82.34,1.37,1.37,0,0,0-.45.82,1.06,1.06,0,0,0,.18.83.83.83,0,0,0,.71.34,1.19,1.19,0,0,0,.82-.34,1.37,1.37,0,0,0,.45-.83A1,1,0,0,0,86.77,32.56Z"/><path class="cls-2" d="M90.57,34a1.62,1.62,0,0,1-.36.45,1.58,1.58,0,0,1-.48.29,1.32,1.32,0,0,1-.55.11h-.69L89,32h.69a1.26,1.26,0,0,1,.51.11,1.1,1.1,0,0,1,.38.29,1.17,1.17,0,0,1,.21.45,1.36,1.36,0,0,1,0,.57A1.75,1.75,0,0,1,90.57,34Zm-.25-1.38a.86.86,0,0,0-.71-.31h-.43l-.37,2.25h.43a1.2,1.2,0,0,0,.81-.32,1.27,1.27,0,0,0,.45-.81A.94.94,0,0,0,90.32,32.58Z"/><path class="cls-2" d="M91,34.81,91.46,32H93l0,.28H91.69l-.17,1h1.26l0,.28H91.48l-.17,1H92.6l0,.27Z"/><path class="cls-2" d="M94.4,34.52l-.05.29H93.14L93.6,32h.27l-.41,2.55Z"/><path class="cls-2" d="M97.41,33.45a1,1,0,0,1-.56.24l.63,1.12h-.36l-.59-1.12h-.32L96,34.81h-.27L96.22,32h.85a.69.69,0,0,1,.55.24.77.77,0,0,1,.14.62A1,1,0,0,1,97.41,33.45Zm-.54,0a.56.56,0,0,0,.4-.17.67.67,0,0,0,.22-.42.56.56,0,0,0-.07-.41.44.44,0,0,0-.36-.16h-.61l-.19,1.16Z"/><path class="cls-2" d="M97.86,34.81,98.33,32h1.56l0,.28H98.55l-.16,1h1.25l0,.28H98.34l-.16,1h1.29l0,.27Z"/><path class="cls-2" d="M100.1,34.8l.47-2.83h.27l-.47,2.83Z"/><path class="cls-3" d="M0,24.91a21,21,0,0,1,2-2c1.59-1.41,4.19-3.68,5.55-3,1.1.55,1.29,3,.66,5.75A79.43,79.43,0,0,0,17,15.8a9.69,9.69,0,0,0,2-4.78,5.06,5.06,0,0,0-.65-3.46A4.24,4.24,0,0,0,17,6.33a10,10,0,0,1-.55,5.57,6.51,6.51,0,0,1-1.67,2.52,6.72,6.72,0,0,1-2.57,1.42,21.15,21.15,0,0,1-3.54.6,13.79,13.79,0,0,0-2.86.69A9.8,9.8,0,0,0,1,21.77,10.2,10.2,0,0,0,0,24.91Z"/><path class="cls-4" d="M7,38.41A17.38,17.38,0,0,0,9,35.25a17.1,17.1,0,0,0,1.54-5.42A14,14,0,0,1,7,33.26a14.12,14.12,0,0,1-5.52,2.21C3.65,33,5.83,30.53,8,28.07q3-3.32,5.91-6.59a18.87,18.87,0,0,1,.61,4.83,15,15,0,0,1-1.26,6.62A9.44,9.44,0,0,1,10,37.15,8.43,8.43,0,0,1,7,38.41Z"/><path class="cls-5" d="M9.57,11.52A2.68,2.68,0,0,1,10.9,10a2.28,2.28,0,0,1,2.13,0,1.91,1.91,0,0,1,.82,1.14,2.59,2.59,0,0,1-.95,2.5,2.37,2.37,0,0,1-1.82.6,2,2,0,0,1-1.43-1A2.07,2.07,0,0,1,9.57,11.52Z"/><rect class="cls-6" width="143.59" height="44.74"/></g></g></svg>