<?xml version="1.0" encoding="UTF-8"?>
<svg xmlns="http://www.w3.org/2000/svg" id="a" width="865.76" height="682.89" viewBox="0 0 865.76 682.89">
  <g>
    <path d="M172.12,443.52v-153.31c0-146.2,118.54-264.75,264.75-264.75h0c146.22,0,264.75,118.55,264.75,264.75v298.61l-578.4-.47v-144.83h48.9Z" fill="#fff"></path>
    <path d="M702.12,589.33h-.5l-578.9-.47v-145.83h48.9v-152.81c0-70.84,27.59-137.45,77.69-187.55,50.1-50.1,116.71-77.7,187.56-77.7s137.46,27.59,187.56,77.7c50.1,50.1,77.69,116.71,77.69,187.55v299.11Zm-578.4-1.47l577.4,.47V290.21c0-145.71-118.54-264.25-264.25-264.25S172.62,144.51,172.62,290.21v153.81h-48.9v143.83Z" fill="#002346"></path>
  </g>
  <g>
    <circle cx="271.71" cy="216.94" r="13.78" fill="#002346"></circle>
    <path d="M268.78,202.93c7.72-1.62,15.32,3.35,16.94,11.08,1.62,7.72-3.35,15.32-11.08,16.94-7.72,1.62-15.32-3.35-16.94-11.08s3.35-15.32,11.08-16.94Zm.22,1.04c-7.15,1.5-11.75,8.53-10.26,15.68,1.5,7.15,8.53,11.75,15.68,10.26,7.15-1.5,11.75-8.53,10.26-15.68s-8.53-11.75-15.68-10.26Z" fill="#0d2445"></path>
  </g>
  <g>
    <circle cx="267.8" cy="227.61" r="10.6" fill="#524595"></circle>
    <path d="M265.52,216.71c6.01-1.26,11.92,2.61,13.17,8.62,1.26,6.01-2.61,11.92-8.62,13.17s-11.92-2.61-13.17-8.62c-1.26-6.01,2.61-11.92,8.62-13.17Zm.22,1.04c-5.44,1.14-8.93,6.48-7.79,11.92s6.48,8.93,11.92,7.79c5.44-1.14,8.93-6.48,7.79-11.92-1.14-5.44-6.48-8.93-11.92-7.79Z" fill="#002346"></path>
  </g>
  <g>
    <rect x="27.76" y="588.82" width="809.77" height="39.5" fill="#e6e7e8"></rect>
    <path d="M838.03,628.83H27.26v-40.5H838.03v40.5Zm-809.77-1H837.03v-38.5H28.26v38.5Z" fill="#002346"></path>
  </g>
  <g>
    <rect x="55.5" y="443.52" width="67.72" height="144.84" fill="#fff"></rect>
    <path d="M123.72,588.87H55v-145.84H123.72v145.84Zm-67.72-1H122.72v-143.84H56v143.84Z" fill="#002346"></path>
  </g>
  <g>
    <rect x="701.62" y="386.15" width="81.82" height="241.71" fill="#fff"></rect>
    <path d="M783.94,628.37h-82.82v-242.71h82.82v242.71Zm-81.82-1h80.82v-240.71h-80.82v240.71Z" fill="#002346"></path>
  </g>
  <g>
    <path d="M701.62,455.54v65.57s64-.47,70.07,67.71v39.5h65.84v-39.5s-4.24-125.55-135.91-133.28Z" fill="#e6e7e8"></path>
    <path d="M838.03,628.83h-66.84v-40c-3.11-34.95-21.86-51.36-37.04-58.98-16.46-8.25-32.38-8.25-32.53-8.23h-.5s0-66.6,0-66.6l.53,.03c30.12,1.77,56.04,9.9,77.04,24.17,16.8,11.42,30.5,26.77,40.71,45.63,17.37,32.09,18.63,63.65,18.64,63.96v40.02Zm-65.84-1h64.84v-39c-.01-.3-1.26-31.66-18.54-63.54-15.88-29.32-48.96-65.08-116.37-69.21v64.55c2.86,.07,17.46,.8,32.48,8.33,15.4,7.73,34.43,24.38,37.59,59.83v39.04Z" fill="#002346"></path>
  </g>
  <g>
    <rect x="790.03" y="598.7" width="47.97" height="29.16" fill="#fff"></rect>
    <path d="M838.5,628.37h-48.97v-30.16h48.97v30.16Zm-47.97-1h46.97v-28.16h-46.97v28.16Z" fill="#002346"></path>
  </g>
  <g>
    <rect x="719.49" y="345.7" width="63.95" height="28.21" fill="#fff"></rect>
    <path d="M783.94,374.42h-64.95v-29.21h64.95v29.21Zm-63.95-1h62.95v-27.21h-62.95v27.21Z" fill="#002346"></path>
  </g>
  <g>
    <rect x="719.49" y="317.49" width="63.95" height="23.51" fill="#fff"></rect>
    <path d="M783.94,341.51h-64.95v-24.51h64.95v24.51Zm-63.95-1h62.95v-22.51h-62.95v22.51Z" fill="#002346"></path>
  </g>
  <g>
    <rect x="719.49" y="290.21" width="63.95" height="18.81" fill="#fff"></rect>
    <path d="M783.94,309.52h-64.95v-19.81h64.95v19.81Zm-63.95-1h62.95v-17.81h-62.95v17.81Z" fill="#002346"></path>
  </g>
  <g>
    <rect x="719.49" y="262" width="63.95" height="14.11" fill="#fff"></rect>
    <path d="M783.94,276.62h-64.95v-15.11h64.95v15.11Zm-63.95-1h62.95v-13.11h-62.95v13.11Z" fill="#002346"></path>
  </g>
  <g>
    <rect x="123.22" y="293.04" width="48.91" height="150.48" fill="#e6e7e8"></rect>
    <path d="M172.63,444.02h-49.91v-151.48h49.91v151.48Zm-48.91-1h47.91v-149.48h-47.91v149.48Z" fill="#002346"></path>
  </g>
  <g>
    <rect x="63.97" y="281.75" width="15.05" height="86.53" fill="#fff"></rect>
    <path d="M79.52,368.79h-16.05v-87.53h16.05v87.53Zm-15.05-1h14.05v-85.53h-14.05v85.53Z" fill="#002346"></path>
  </g>
  <g>
    <path d="M123.22,443.52v50.11s48.9-.27,48.9-50.11h-48.9Z" fill="#fff"></path>
    <path d="M122.72,494.14v-51.11h49.9v.5c0,26-13.44,38.38-24.72,44.19-12.19,6.28-24.55,6.42-24.68,6.42h-.5Zm1-50.11v49.1c2.42-.1,13.15-.84,23.75-6.31,15.89-8.2,24.01-22.59,24.15-42.79h-47.9Z" fill="#002346"></path>
  </g>
  <g>
    <path d="M185.66,502.77h161.4v85.59H178.71v-78.64c0-3.84,3.11-6.95,6.95-6.95Z" fill="#fff"></path>
    <path d="M347.56,588.87H178.21v-79.14c0-4.11,3.34-7.45,7.45-7.45h161.9v86.59Zm-168.35-1h167.35v-84.59H185.66c-3.56,0-6.45,2.89-6.45,6.45v78.14Z" fill="#002346"></path>
  </g>
  <g>
    <path d="M354.1,443.52h149.57c3.89,0,7.04,3.15,7.04,7.04v137.8h-163.65v-137.8c0-3.89,3.15-7.04,7.04-7.04Z" fill="#e64661"></path>
    <path d="M511.21,588.87h-164.65v-138.3c0-4.16,3.38-7.54,7.54-7.54h149.57c4.16,0,7.54,3.38,7.54,7.54v138.3Zm-163.65-1h162.65v-137.3c0-3.61-2.93-6.54-6.54-6.54h-149.57c-3.61,0-6.54,2.93-6.54,6.54v137.3Z" fill="#002346"></path>
  </g>
  <g>
    <path d="M510.7,535.68h156.7c3.84,0,6.95,3.11,6.95,6.95v45.72h-163.65v-52.67Z" fill="#fff"></path>
    <path d="M674.85,588.85h-164.65v-53.67h157.2c4.11,0,7.45,3.34,7.45,7.45v46.22Zm-163.65-1h162.65v-45.22c0-3.56-2.89-6.45-6.45-6.45h-156.2v51.67Z" fill="#002346"></path>
  </g>
  <g>
    <ellipse cx="433.11" cy="421.88" rx="61.6" ry="11.29" fill="#fff"></ellipse>
    <path d="M433.11,433.67c-30.53,0-62.1-4.41-62.1-11.79s31.57-11.79,62.1-11.79,62.1,4.41,62.1,11.79-31.57,11.79-62.1,11.79Zm0-22.58c-36.55,0-61.1,5.58-61.1,10.79s24.55,10.79,61.1,10.79,61.1-5.58,61.1-10.79-24.55-10.79-61.1-10.79Z" fill="#002346"></path>
  </g>
  <g>
    <path d="M494.74,421.88l-1,23.52c-2.2,2.86-6.34,5.09-11.41,6.85-6.6,2.29-14.74,3.75-22.17,4.69-11.32,1.43-21,1.62-21,1.62-56.43,2.83-67.72-13-67.72-13v-23.68c0,6.24,27.58,11.29,61.6,11.29,6.71,0,13.16-.2,19.2-.55h0c14-.84,25.81-2.58,33.37-4.84,5.81-1.77,9.13-3.77,9.13-5.9Z" fill="#524595"></path>
    <path d="M426.02,459.41c-44.76,0-54.56-12.95-54.98-13.55l-.09-.13v-23.84h1c0,5.21,24.55,10.79,61.1,10.79,6.43,0,12.88-.18,19.17-.55,13.82-.83,25.63-2.54,33.26-4.82,7.32-2.23,8.67-4.23,8.77-5.29v-.15s1.01,.02,1.01,.02c0,.07,0,.14,0,.21l-1,23.49-.1,.12c-2.07,2.69-5.99,5.06-11.64,7.02-5.71,1.98-13.2,3.57-22.27,4.71-11.22,1.42-20.96,1.62-21.05,1.62-4.69,.24-9.07,.34-13.15,.34Zm-54.08-14.02c1.2,1.43,14.39,15.32,67.19,12.68,.11,0,9.8-.21,20.96-1.62,9-1.14,16.43-2.71,22.07-4.67,5.38-1.87,9.1-4.07,11.08-6.56l.89-21.01c-1.41,1.43-4.19,2.78-8.39,4.05-7.7,2.3-19.59,4.03-33.49,4.86-6.31,.37-12.78,.55-19.23,.55-27.33,0-55.5-3.54-61.1-9.57v21.29Z" fill="#002346"></path>
  </g>
  <g>
    <path d="M453.33,325.95l-43.26,.94v10.95s.94,1.28,3.76,1.28c.02,12.56-2.01,25.04-6,36.95-3.26,8.94-8.37,17.1-14.99,23.94-5.61,5.82-8.29,13.85-7.29,21.87,0,0,8.53,7.53,49.91,6.59,0,0,34.53,0,45.48-6.59v-8.26s-1.27-7.72-10.68-17.13c0,0-12.22-11.29-15-40.44l-1.88-30.1" fill="#524595"></path>
    <path d="M428.43,429.06c-35.09,0-42.88-6.5-43.21-6.8l-.14-.12-.02-.19c-1.02-8.21,1.69-16.33,7.43-22.28,6.62-6.83,11.62-14.83,14.88-23.76,3.92-11.72,5.93-23.93,5.97-36.29-2.66-.14-3.62-1.41-3.66-1.47l-.1-.13v-11.6l43.75-.95v.5s.56-.03,.56-.03l1.88,30.1c2.73,28.57,14.72,39.99,14.84,40.1,9.43,9.43,10.78,17.09,10.83,17.42v8.62s-.24,.15-.24,.15c-10.94,6.58-44.32,6.66-45.74,6.66-2.46,.06-4.8,.08-7.03,.08Zm-42.41-7.44c1.27,.9,11.58,7.22,49.43,6.36,.35,0,34.02-.07,44.99-6.38v-7.97h0s-1.37-7.61-10.53-16.78c-.11-.1-12.38-11.74-15.14-40.75l-1.85-29.64-42.34,.92v10.27c.28,.27,1.21,.97,3.26,.97h.5v.5c.02,12.64-2.01,25.12-6.03,37.11-3.31,9.08-8.39,17.19-15.1,24.13-5.48,5.68-8.09,13.42-7.18,21.25Z" fill="#002346"></path>
  </g>
  <g>
    <path d="M510.74,138.32c0,2.35-35.15,4.24-78.53,4.24s-78.53-1.89-78.53-4.24c0-.16,.16-.32,.48-.47,4.34-2.11,37.63-3.76,78.05-3.76,43.34,0,78.53,1.92,78.53,4.23Z" fill="#524595"></path>
    <path d="M432.21,143.06c-21.01,0-40.74-.44-55.56-1.24-23.47-1.27-23.47-2.77-23.47-3.5,0-.37,.26-.68,.77-.92,4.46-2.17,38.11-3.81,78.26-3.81,20.92,0,40.65,.44,55.54,1.25,23.49,1.27,23.49,2.76,23.49,3.48s0,2.23-23.47,3.5c-14.82,.8-34.55,1.24-55.56,1.24Zm-77.9-4.73c2.92,1.83,34.19,3.73,77.9,3.73s75.08-1.91,77.91-3.74c-2.87-1.83-34.17-3.73-77.91-3.73-39.36,0-73.55,1.63-77.83,3.71-.02,.01-.05,.02-.07,.03Z" fill="#002346"></path>
  </g>
  <g>
    <path d="M509.94,154.67s4.52-6.47,6.41-3.65c0,0,.94,.91,0,6.57,0,0-.67,4,3.64,3,1.55-.39,2.96-1.19,4.09-2.32,4-3.92,17.83-15.72,28.95-5.4,0,0,20.45,10.56,8.31,49.9-5.74,18.17-15.79,34.69-29.3,48.13-13.26,13.17-27.99,24.78-43.91,34.58,0,0-1.88,2.82-1.88,10.35,0,0,1.88,7.52-1.88,6.58,0,0-9.08-1.58-5-16.31,0,0,1.25-6.26,9.71-10,0,0,38.56-18.81,56.43-63,0,0,18.81-48-3.76-54.55,0,0-1.88-2.82-13.17,5.65,0,0-11.37,9.87-19.32-.24l.68-9.29Z" fill="#fff"></path>
    <path d="M484.97,303c-.22,0-.46-.03-.72-.09-.08-.01-2.92-.54-4.81-3.53-1.97-3.11-2.15-7.62-.55-13.4,.04-.23,1.39-6.52,9.99-10.32,.37-.18,38.58-19.24,56.17-62.73,.12-.31,12.31-31.8,4.93-46.78-1.78-3.62-4.6-6.01-8.37-7.1l-.18-.05-.1-.15h0s-2.03-2.04-12.45,5.77c-.21,.18-5.79,4.96-12.01,4.37-3.09-.29-5.79-1.88-8.01-4.7l-.12-.15,.7-9.62,.08-.11c.33-.47,3.26-4.58,5.59-4.58,0,0,.01,0,.02,0,.64,0,1.2,.32,1.6,.9,.3,.35,.96,1.76,.1,6.96,0,.01-.22,1.43,.54,2.14,.49,.46,1.33,.56,2.49,.29,1.45-.36,2.79-1.12,3.85-2.19,4.05-3.96,18.11-16.05,29.6-5.46,1.28,.73,20.27,12.29,8.49,50.46-5.74,18.18-15.92,34.89-29.43,48.34-13.24,13.15-28.01,24.79-43.9,34.59-.29,.51-1.74,3.42-1.75,9.93,.18,.75,1.16,5.12-.39,6.67-.27,.27-.72,.55-1.39,.55Zm57.05-144.88c3.99,1.19,6.96,3.74,8.85,7.58,7.57,15.38-4.39,46.29-4.9,47.59-17.74,43.87-56.29,63.08-56.68,63.27-8.11,3.59-9.43,9.59-9.44,9.65-1.53,5.54-1.39,9.78,.43,12.64,1.66,2.62,4.15,3.08,4.17,3.08,.81,.2,1.1-.09,1.2-.18,.9-.9,.55-4.03,.11-5.78v-.12c-.01-7.59,1.87-10.51,1.95-10.63l.15-.15c15.86-9.77,30.6-21.38,43.82-34.51,13.4-13.33,23.48-29.9,29.18-47.93,11.88-38.49-7.86-49.2-8.06-49.3l-.11-.08c-10.85-10.06-24.37,1.58-28.26,5.39-1.19,1.19-2.68,2.04-4.32,2.45-1.52,.35-2.66,.17-3.41-.54-1.15-1.08-.85-2.95-.84-3.03,.84-5.08,.12-6.15,.11-6.16-.33-.48-.63-.53-.84-.54,0,0,0,0-.01,0-1.33,0-3.55,2.43-4.7,4.04l-.66,8.96c2.02,2.5,4.44,3.91,7.19,4.17,5.8,.56,11.23-4.1,11.28-4.15,7.5-5.62,11.06-6.46,12.73-6.17,.55,.09,.87,.31,1.04,.46Z" fill="#002346"></path>
  </g>
  <g>
    <path d="M353.92,152.79s-4.52-6.47-6.41-3.65c0,0-.94,.9,0,6.57,0,0,.67,4-3.64,3-1.55-.38-2.96-1.18-4.09-2.31-4-3.92-17.83-15.72-29-5.4,0,0-20.45,10.56-8.31,49.9,5.76,18.17,15.83,34.68,29.35,48.11,13.26,13.19,28,24.8,43.92,34.62,0,0,1.88,2.82,1.88,10.35,0,0-1.88,7.52,1.88,6.58,0,0,9.08-1.58,5-16.31,0,0-1.25-6.26-9.71-10,0,0-38.56-18.81-56.43-63,0,0-18.81-48,3.76-54.55,0,0,1.88-2.82,13.17,5.65,0,0,11.37,9.86,19.32-.24l-.69-9.32Z" fill="#fff"></path>
    <path d="M378.89,301.15c-.67,0-1.11-.28-1.39-.55-1.55-1.55-.57-5.92-.39-6.67,0-6.5-1.46-9.41-1.75-9.93-15.89-9.81-30.66-21.46-43.91-34.63-13.52-13.43-23.72-30.14-29.47-48.31-11.78-38.17,7.21-49.74,8.49-50.46,11.53-10.59,25.6,1.49,29.64,5.45,1.06,1.07,2.4,1.82,3.86,2.18,1.15,.27,1.99,.17,2.49-.29,.76-.71,.54-2.13,.54-2.14-.86-5.2-.2-6.61,.1-6.96,.4-.58,.96-.9,1.6-.9,0,0,.01,0,.02,0,2.33,0,5.27,4.11,5.59,4.58l.08,.11,.71,9.65-.12,.15c-2.22,2.82-4.91,4.4-8,4.69-6.22,.58-11.8-4.18-12.04-4.38-10.4-7.8-12.43-5.75-12.44-5.72l-.1,.15-.16,.03c-3.77,1.09-6.59,3.48-8.37,7.1-7.38,14.98,4.81,46.47,4.93,46.79,17.59,43.49,55.8,62.55,56.18,62.73,8.58,3.79,9.93,10.08,9.98,10.35,1.59,5.75,1.41,10.26-.56,13.37-1.89,2.99-4.72,3.51-4.84,3.53-.25,.06-.48,.09-.69,.09Zm-57.99-153.78c-3.29,0-6.65,1.1-9.79,4l-.11,.08c-.2,.1-19.92,10.87-8.06,49.31,5.71,18.01,15.82,34.58,29.22,47.9,13.22,13.14,27.97,24.76,43.83,34.55l.15,.15c.08,.12,1.96,3.03,1.96,10.63v.12c-.45,1.76-.81,4.88,.09,5.78,.1,.09,.39,.38,1.16,.19,.06-.01,2.58-.49,4.22-3.11,1.8-2.86,1.94-7.09,.42-12.58-.02-.09-1.33-6.1-9.43-9.68-.4-.2-38.95-19.41-56.69-63.27-.51-1.31-12.47-32.22-4.9-47.6,1.89-3.84,4.87-6.39,8.85-7.58,.17-.15,.49-.37,1.04-.46,1.67-.29,5.23,.55,12.7,6.15,.08,.07,5.53,4.72,11.32,4.17,2.75-.26,5.17-1.66,7.19-4.16l-.67-8.99c-1.15-1.61-3.36-4.04-4.7-4.04h-.01c-.2,0-.51,.06-.8,.49l-.07,.08s0,0,0,0c0,0-.69,1.1,.15,6.13,.01,.08,.31,1.95-.84,3.03-.75,.71-1.9,.89-3.41,.54-1.65-.4-3.14-1.25-4.33-2.44-2.76-2.71-10.41-9.39-18.52-9.39Z" fill="#002346"></path>
  </g>
  <g>
    <circle cx="101.12" cy="216.39" r="22.1" fill="#fff"></circle>
    <path d="M101.12,239c-12.46,0-22.6-10.14-22.6-22.6s10.14-22.6,22.6-22.6,22.6,10.14,22.6,22.6-10.14,22.6-22.6,22.6Zm0-44.2c-11.91,0-21.6,9.69-21.6,21.6s9.69,21.6,21.6,21.6,21.6-9.69,21.6-21.6-9.69-21.6-21.6-21.6Z" fill="#002346"></path>
  </g>
  <g>
    <ellipse cx="431.7" cy="326.89" rx="21.63" ry="4.7" fill="#fff"></ellipse>
    <path d="M431.7,332.09c-10.73,0-22.13-1.82-22.13-5.2s11.4-5.2,22.13-5.2,22.13,1.82,22.13,5.2-11.4,5.2-22.13,5.2Zm0-9.4c-13.09,0-21.13,2.45-21.13,4.2s8.04,4.2,21.13,4.2,21.13-2.45,21.13-4.2-8.04-4.2-21.13-4.2Z" fill="#002346"></path>
  </g>
  <g>
    <path d="M510.74,138.32c-2.82,95.46-32.91,151-32.91,151-16.93,43.27-46.09,40-46.09,40-34.8-.47-56.43-67.24-56.43-67.24-24.45-74.3-21.63-124.15-21.63-124.15h.48c-.32,.15-.48,.31-.48,.47,0,2.35,35.16,4.24,78.53,4.24s78.53-1.97,78.53-4.32Z" fill="#524595"></path>
    <path d="M432.95,329.87c-.79,0-1.23-.04-1.27-.05-34.71-.47-56.63-66.91-56.85-67.58-24.2-73.54-21.68-123.83-21.65-124.33l.03-.47h3.19l-2.03,.95s-.04,.02-.06,.03c2.92,1.83,34.19,3.73,77.9,3.73s76.52-2.04,78.06-3.94c0,.01-.03,.05-.03,.11h1c0,.05,0,.09,0,.13-2.81,94.42-32.67,150.56-32.97,151.12-14.85,37.95-39.47,40.31-45.32,40.31Zm-78.82-190.48c-.21,8.67-.22,56.07,21.65,122.54,.22,.67,21.92,66.44,55.96,66.9,.34,.03,29.04,2.69,45.62-39.68,.33-.61,29.87-56.19,32.84-149.8-1.89,.75-7.25,1.68-22.44,2.52-14.91,.83-34.64,1.28-55.56,1.28s-40.73-.44-55.56-1.24c-15.42-.83-20.71-1.77-22.52-2.52Z" fill="#002346"></path>
  </g>
  <g>
    <path d="M460.86,259.86v17.44c0,1.94-1.57,3.51-3.51,3.51h-50.36c-1.93,0-3.5-1.58-3.5-3.51v-17.44c0-1.93,1.57-3.5,3.5-3.5h16.25v-53.61l-10.82,6c-8,4.14-8-4.14-8-4.14l-.94-13.12c0-11.25,6.58-10.39,6.58-10.39,3.11,0,6.24-1.78,8.81-3.86,2.33-1.91,4.42-4.09,6.24-6.49,1-3.21,4.2-5.2,7.52-4.7h9.41c5.64,0,4.75,5.64,4.75,5.64v84.65h10.55c1.94,0,3.51,1.56,3.52,3.5,0,0,0,.01,0,.02Z" fill="#e64661"></path>
    <path d="M457.35,281.31h-50.36c-2.21,0-4-1.8-4-4.01v-17.44c0-2.21,1.79-4,4-4h15.75v-52.26l-10.08,5.59c-2.65,1.37-4.78,1.59-6.33,.65-2.39-1.45-2.41-5.07-2.41-5.22l-.94-13.08c0-4.54,1.03-7.72,3.05-9.5,1.92-1.68,4-1.43,4.09-1.42,2.46,0,5.4-1.3,8.43-3.75,2.27-1.86,4.32-4,6.1-6.34,1.11-3.42,4.48-5.51,8.05-4.96h9.34c1.8,0,3.18,.54,4.1,1.61,1.56,1.83,1.16,4.49,1.14,4.6v84.07h10.07c1.06,0,2.07,.41,2.82,1.17,.76,.76,1.18,1.76,1.18,2.83v17.46c0,2.21-1.8,4.01-4.01,4.01Zm-50.36-24.45c-1.65,0-3,1.35-3,3v17.44c0,1.66,1.35,3.01,3,3.01h50.36c1.66,0,3.01-1.35,3.01-3.01v-17.46c0-.82-.32-1.57-.89-2.13-.57-.57-1.33-.91-2.13-.88h-11.05v-85.15c0-.1,.35-2.41-.91-3.88-.72-.84-1.84-1.26-3.34-1.26h-9.41c-3.18-.48-6.11,1.36-7.04,4.35l-.08,.15c-1.84,2.43-3.97,4.64-6.32,6.58-3.26,2.64-6.33,3.97-9.13,3.97-.13-.01-1.81-.2-3.38,1.19-1.76,1.56-2.7,4.57-2.7,8.7l.94,13.08c0,.07,.03,3.25,1.94,4.41,1.23,.75,3.02,.52,5.33-.67l11.55-6.4v54.96h-16.75Z" fill="#002346"></path>
  </g>
  <g>
    <path d="M354.08,398.33h0c-1.73,1.86-1.62,4.76,.24,6.49,.12,.11,.24,.22,.37,.31l2.09,1.57c1.76,1.32,4.21,1.21,5.84-.27l21.36-19.32s9.2-1.15,4.6-10.35c0,0-9.09-17.55-23-16.25,0,0-3.51,.14-4.66,4.74,0,0,5.89-1.52,9.28,1,0,0,9.05,5.22,14,11.57,.75,.93,1.17,2.08,1.2,3.28,0,.87-.28,1.44-1.43,.29,0,0-6.91-5.75-12.66,1.15l-17.23,15.79Z" fill="#e64661"></path>
    <path d="M359.53,408.12c-1.07,0-2.15-.34-3.05-1.02l-2.09-1.57c-.14-.11-.28-.22-.41-.34-2.06-1.91-2.17-5.14-.26-7.2l.03-.03,17.23-15.79c5.95-7.15,13.24-1.23,13.32-1.17,.29,.29,.48,.42,.58,.48,.02-.08,.03-.2,.03-.39-.03-1.07-.41-2.12-1.09-2.97-4.84-6.2-13.77-11.4-13.86-11.45-3.2-2.38-8.85-.96-8.91-.95l-.81,.21,.2-.81c1.23-4.91,4.97-5.11,5.13-5.12,14.06-1.31,23.09,15.79,23.46,16.52,1.52,3.04,1.75,5.58,.69,7.55-1.43,2.68-4.74,3.37-5.52,3.5l-21.25,19.22c-.96,.87-2.19,1.32-3.42,1.32Zm-5.1-9.43c-1.52,1.65-1.42,4.24,.22,5.77,.11,.1,.22,.19,.33,.28l2.09,1.57c1.57,1.18,3.75,1.07,5.2-.24l21.48-19.43,.16-.02s3.58-.48,4.92-3.01c.89-1.67,.65-3.9-.71-6.62-.09-.17-9.09-17.25-22.51-15.98-.14,0-2.79,.18-3.99,3.58,1.8-.33,6.07-.81,8.86,1.26,.32,.18,9.14,5.31,14.1,11.66,.81,1.01,1.27,2.28,1.31,3.58,0,.29,0,1.13-.61,1.39-.59,.24-1.2-.26-1.67-.73-.23-.19-6.57-5.31-11.92,1.12l-17.26,15.82Z" fill="#002346"></path>
  </g>
  <g>
    <path d="M360.96,365.25s-1.65,6,5.5,14.51l3.75,3.77,2.26-2.22c1-.79,2.11-1.43,3.3-1.9,0,0-10.89-7.86-8.82-14.46-1.98-.5-4.07-.4-5.99,.3Z" fill="#e64661"></path>
    <path d="M370.21,384.24l-4.1-4.12c-7.26-8.64-5.7-14.74-5.63-15l.07-.25,.24-.09c2.02-.74,4.2-.84,6.28-.31l.51,.13-.16,.5c-1.94,6.18,8.53,13.83,8.64,13.91l.74,.54-.85,.33c-1.14,.45-2.21,1.06-3.17,1.83l-2.57,2.53Zm-8.81-18.61c-.19,1.19-.62,6.58,5.45,13.81l3.37,3.39,1.91-1.87c.84-.67,1.73-1.22,2.67-1.66-2.36-1.85-9.73-8.17-8.45-13.97-1.65-.33-3.34-.23-4.94,.3Z" fill="#002346"></path>
  </g>
  <g>
    <path d="M218.29,480.31l-3.45,20.7s-33.36,32.21-26.46,85.14l20.71,3.45,35.65-92.76s-13.79-1.57-26.45-16.53Z" fill="#f2b3c1"></path>
    <path d="M209.41,590.17l-21.48-3.58-.05-.37c-6.64-50.97,24.3-83.24,26.49-85.45l3.6-21.61,.7,.82c12.37,14.62,25.99,16.34,26.13,16.36l.64,.07-.23,.6-35.8,93.14Zm-20.58-4.44l19.94,3.32,35.28-91.8c-2.81-.52-14.53-3.35-25.44-15.79l-3.3,19.81-.12,.11c-.33,.32-32.94,32.51-26.36,84.35Z" fill="#002346"></path>
  </g>
  <g>
    <path d="M259.84,478.8l-3.86,7.73-5.5,11c-13.47-.75-23-7.79-28.06-12.65-1.5-1.42-2.88-2.95-4.13-4.6l4.89-24.88c3.54,1.9,6.89,4.14,10,6.69l26.66,16.71Z" fill="#e64661"></path>
    <path d="M250.78,498.05l-.33-.02c-13.22-.74-22.73-7.36-28.38-12.79-1.51-1.43-2.92-2.99-4.18-4.66l-.14-.18,5.06-25.76,.6,.32c3.56,1.91,6.95,4.18,10.08,6.74l26.99,16.91-9.71,19.43Zm-31.96-17.89c1.19,1.55,2.52,3.02,3.94,4.36,5.49,5.27,14.68,11.69,27.42,12.5l9.01-18.03-26.28-16.47c-2.95-2.41-6.09-4.54-9.38-6.35l-4.72,23.99Z" fill="#002346"></path>
  </g>
  <g>
    <path d="M234.61,359.95v13.73s18.32,20.46,51.63,11.2l-.06-17.33s-17.84,.58-51.57-7.6Z" fill="#f2b3c1"></path>
    <path d="M269.48,387.77c-22.62,0-35.09-13.58-35.25-13.75l-.13-.14v-14.56l.62,.15c33.26,8.07,51.26,7.59,51.44,7.59l.51-.02,.06,18.23-.37,.1c-6.13,1.71-11.77,2.4-16.89,2.4Zm-34.37-14.28c1.68,1.75,19.68,19.44,50.63,11.02l-.06-16.44c-3.15-.04-20.65-.27-50.57-7.47v12.9Z" fill="#002346"></path>
  </g>
  <g>
    <path d="M274.73,248.32v20c0,9-6.42,16.49-14.93,18.15-.02,0-.05,.01-.07,.01-1.13,.22-2.3,.34-3.5,.34-10.22,0-18.5-8.28-18.5-18.5v-20c0-8.21,5.34-15.17,12.74-17.58,1.81-.6,3.75-.92,5.76-.92,5.11,0,9.74,2.07,13.08,5.42,3.35,3.34,5.42,7.97,5.42,13.08Z" fill="#f2b3c1"></path>
    <path d="M256.23,287.32c-10.48,0-19-8.52-19-19v-20c0-8.25,5.26-15.51,13.09-18.06,1.89-.63,3.88-.94,5.91-.94,5.08,0,9.85,1.98,13.43,5.57,3.59,3.58,5.57,8.35,5.57,13.43v20c0,9.07-6.45,16.91-15.33,18.64l-.17,.02c-1.1,.22-2.31,.34-3.5,.34Zm0-57c-1.93,0-3.81,.3-5.6,.89-7.42,2.42-12.4,9.29-12.4,17.11v20c0,9.92,8.07,18,18,18,1.13,0,2.28-.11,3.4-.33l.17-.02c8.32-1.63,14.43-9.06,14.43-17.65v-20c0-4.82-1.87-9.34-5.27-12.73-3.39-3.4-7.91-5.27-12.73-5.27Z" fill="#002346"></path>
  </g>
  <g>
    <path d="M259.73,286.48c-7.14,8.29-17.07,4.88-23.21,1.44-5.04-2.74-8.43-7.77-9.08-13.47-.65-6.91,3.51-10.41,3.51-10.41,2.45-3.92,3.4-8.59,2.66-13.16-.37-2.26-.46-4.55-.27-6.83,1.62-17,16.63-17.68,16.63-17.68-.76,2.4-.08,3.73,.5,4.37-7.4,2.41-12.74,9.37-12.74,17.58v20c0,10.22,8.28,18.5,18.5,18.5,1.2,0,2.37-.12,3.5-.34Z" fill="#002346"></path>
    <path d="M248.77,292.1c-4.77,0-9.38-2-12.49-3.74-5.17-2.81-8.66-7.99-9.33-13.85-.63-6.71,3.07-10.3,3.62-10.79,2.36-3.81,3.27-8.34,2.55-12.75-.38-2.29-.47-4.63-.27-6.95,1.64-17.24,16.95-18.13,17.11-18.14l.72-.03-.22,.68c-.67,2.11-.16,3.28,.39,3.88l.52,.57-.73,.24c-7.41,2.41-12.39,9.29-12.39,17.1v20c0,9.92,8.07,18,18,18,1.13,0,2.28-.11,3.4-.33l1.42-.27-.94,1.09c-3.4,3.94-7.42,5.29-11.34,5.29Zm.53-65.17c-2.95,.36-14.08,2.68-15.46,17.17-.19,2.23-.1,4.49,.27,6.7,.76,4.68-.21,9.48-2.73,13.5l-.1,.12s-3.95,3.43-3.33,9.98c.63,5.53,3.93,10.42,8.82,13.08,6.29,3.52,15,6.2,21.62-.29-.72,.08-1.43,.12-2.15,.12-10.48,0-19-8.52-19-19v-20c0-8.02,4.97-15.1,12.44-17.83-.42-.72-.75-1.87-.37-3.55Z" fill="#002346"></path>
  </g>
  <g>
    <path d="M289.67,312.33l-11.51,5.75-25.31-5.75-5.91-20.69c4.89,.52,9.71-1.43,12.86-5.17,8.51-1.66,14.93-9.15,14.93-18.15v-2.74c.3,1.96,.47,3.93,.52,5.9-.07,2.78-.44,5.55-1.09,8.25-.06,.32-1.25,7.77,4.21,12.47,2,1.7,4.83,2.87,9,2.87l2.3,17.26Z" fill="#f2b3c1"></path>
    <path d="M278.22,318.61l-.17-.04-25.6-5.82-6.19-21.69,.74,.08c4.72,.5,9.37-1.37,12.42-5l.11-.13,.17-.03c8.42-1.64,14.53-9.07,14.53-17.66v-2.74l.99-.08c.3,1.94,.47,3.95,.53,5.96-.07,2.82-.44,5.63-1.1,8.38,0,.05-1.31,7.36,4.05,11.97,2.18,1.85,5.01,2.75,8.67,2.75h.44l2.41,18.05-11.99,5.99Zm-24.97-6.7l24.85,5.64,11.03-5.51-2.2-16.48c-3.7-.07-6.61-1.05-8.89-2.99-5.79-4.99-4.39-12.86-4.38-12.94,.54-2.27,.89-4.55,1.02-6.83-1.71,7.01-7.33,12.63-14.62,14.12-3.11,3.61-7.71,5.56-12.45,5.27l5.63,19.71Z" fill="#002346"></path>
  </g>
  <g>
    <path d="M130.85,222.58s72.49,55.23,87.44,62.13c0,0,2.12,14.09-8.72,23.73l-75.27-59.43s-11.5-12.62-3.45-26.43Z" fill="#f2b3c1"></path>
    <path d="M209.59,309.1l-75.6-59.69c-.18-.18-11.71-13.11-3.57-27.07l.28-.49,.45,.34c.72,.55,72.62,55.27,87.35,62.07l.24,.11,.04,.27c.02,.14,2.03,14.47-8.88,24.18l-.31,.28Zm-78.59-85.77c-7.22,13.13,3.56,25.23,3.67,25.35l74.88,59.11c9.37-8.62,8.49-20.81,8.28-22.74-14.73-7.02-80.66-57.04-86.82-61.72Z" fill="#002346"></path>
  </g>
  <g>
    <path d="M301.1,463.16c.77,.67,1.09,1.72,.84,2.71-.69,2.74-1.86,5.34-3.45,7.68-9.41,13.47-30.74,10.22-30.74,10.22l-34.58-21.64c-12.45-6.82-22.47-17.34-28.67-30.11-2.11-5.34-2.59-11.19-1.37-16.8,4.51-22.53,31.28-41.88,31.28-41.88,0,0,6.26,8.51,24.41,12.94,10.59,2.58,27.43-1.37,27.43-1.37,2.35,21.92-12.72,54-12.72,54l27.58,24.25Z" fill="#e64661"></path>
    <path d="M273.22,484.59c-3.28,0-5.48-.32-5.55-.33l-.19-.07-34.58-21.64c-12.59-6.89-22.57-17.38-28.85-30.32-2.17-5.49-2.66-11.4-1.41-17.12,4.49-22.45,31.21-41.98,31.48-42.18l.4-.29,.29,.4c.06,.08,6.4,8.42,24.13,12.75,10.35,2.52,27.03-1.33,27.2-1.37l.55-.13,.06,.56c2.21,20.59-11,50.4-12.61,53.92l27.3,24.01c.91,.8,1.29,2.03,.99,3.21-.71,2.81-1.89,5.45-3.53,7.84-6.48,9.28-18.59,10.76-25.67,10.76Zm-5.3-1.3c1.59,.21,21.36,2.57,30.16-10.03,1.57-2.29,2.7-4.82,3.38-7.51,.2-.81-.06-1.66-.68-2.21l-27.86-24.5,.16-.34c.15-.32,14.73-31.66,12.73-53.17-3.05,.67-17.48,3.59-27.11,1.24-16.12-3.93-22.9-10.98-24.38-12.74-3.28,2.47-26.57,20.67-30.7,41.29-1.21,5.54-.74,11.25,1.34,16.52,6.18,12.71,16.02,23.05,28.45,29.86l34.51,21.6Z" fill="#002346"></path>
  </g>
  <g>
    <path d="M210.24,518.28l-17.26,12.65s-1.15,12.66,5.75,18.41l19.56-11.13s-10.35-11.88-8.05-19.93Z" fill="#fff"></path>
    <path d="M198.68,549.95l-.27-.22c-7.02-5.85-5.98-18.31-5.93-18.84l.02-.22,18.62-13.65-.4,1.4c-2.2,7.7,7.84,19.35,7.95,19.46l.4,.46-20.39,11.6Zm-5.21-18.75c-.1,1.67-.52,12.34,5.33,17.54l18.73-10.66c-1.81-2.19-8.98-11.38-8.03-18.62l-16.03,11.75Z" fill="#002346"></path>
  </g>
  <g>
    <path d="M209.09,589.61l-5.75,25.31c-.14,.01-.28,.01-.42,0-3.03,.21-6.08-.1-9-.93l-.46-.12c-3.89-1.08-7.67-2.53-11.28-4.35-.24-.12-.49-.25-.73-.39l6.9-23,20.74,3.48Z" fill="#fff"></path>
    <path d="M201.03,615.49c-2.42,0-4.87-.34-7.25-1.01l-.45-.12c-3.92-1.08-7.75-2.56-11.38-4.39-.25-.12-.51-.26-.76-.4l-.34-.2,7.14-23.8,21.7,3.64-5.95,26.19-.37,.03c-.17,.01-.33,.01-.5,0-.61,.04-1.23,.07-1.85,.07Zm-18.99-6.6c.12,.06,.24,.13,.36,.18,3.57,1.8,7.34,3.25,11.19,4.32l.45,.12c2.89,.82,5.86,1.13,8.84,.91,.02,0,.04,0,.06,0l5.54-24.41-19.78-3.32-6.66,22.19Z" fill="#002346"></path>
  </g>
  <g>
    <path d="M196.43,578.11c2.3,12.65-6.9,13.8-6.9,13.8-.39,.16-.81,.24-1.23,.25h0c-5.47,0-11.42-12.9-11.42-12.9-3-5.25-2.57-13.42-1.92-18.48,.29-2.47-.43-4.95-2-6.88-3.36-4.25-4.66-11.85-5.09-15.35-.19-1.38,.42-2.75,1.57-3.54,6.27-4,23.54-4,23.54-4-1.15,13.81,5.75,18.41,5.75,18.41-5.75,7.98-2.3,28.69-2.3,28.69Z" fill="#524595"></path>
    <path d="M188.31,592.67c-5.73,0-11.63-12.65-11.88-13.19-2.95-5.15-2.69-13.04-1.96-18.75,.27-2.32-.42-4.69-1.89-6.5-3.51-4.44-4.8-12.39-5.2-15.61-.21-1.57,.47-3.11,1.78-4.01,6.33-4.04,23.11-4.09,23.82-4.09h.54l-.05,.54c-1.11,13.31,5.46,17.91,5.53,17.95l.43,.29-.3,.42c-5.54,7.69-2.27,27.96-2.21,28.31,.83,4.59,.29,8.24-1.63,10.85-2.11,2.87-5.13,3.45-5.64,3.53-.43,.17-.89,.26-1.35,.26Zm4.13-61.15c-2.96,.04-17.27,.43-22.73,3.92-.99,.68-1.51,1.85-1.34,3.05,.39,3.14,1.64,10.88,4.99,15.11,1.64,2.02,2.41,4.66,2.1,7.25-.71,5.56-.97,13.22,1.86,18.17,.08,.17,5.9,12.65,10.99,12.65,.35,0,.71-.08,1.04-.21l.13-.03s3.04-.42,5.03-3.15c1.74-2.38,2.22-5.76,1.44-10.07h0c-.14-.85-3.31-20.37,2.11-28.67-1.49-1.23-6.43-6.25-5.61-18.01Z" fill="#002346"></path>
  </g>
  <g>
    <path d="M188.29,592.16c-16.17,9.42-19.47-34.76-19.47-34.76l-3.45-11.51c-3.45-9.2,4.07-10.92,4.07-10.92-1.16,.8-1.77,2.18-1.57,3.58,.43,3.5,1.73,11.1,5.09,15.35,1.57,1.93,2.29,4.41,2,6.88-.65,5.06-1.07,13.23,1.92,18.48,0,0,5.94,12.9,11.41,12.9Z" fill="#fff"></path>
    <path d="M183.96,593.98c-1.12,0-2.21-.27-3.24-.82-9.9-5.21-12.25-33.81-12.4-35.67l-3.43-11.46c-1.2-3.21-1.24-5.93-.1-8.06,1.49-2.77,4.41-3.46,4.53-3.49l2.57-.59-2.18,1.49c-1,.68-1.53,1.9-1.36,3.09,.39,3.14,1.64,10.88,4.99,15.11,1.64,2.02,2.41,4.66,2.1,7.25-.58,4.55-1.12,12.95,1.86,18.17l.15,.27v.02c.81,1.72,6.14,12.36,10.82,12.36h1.85l-1.6,.93c-1.58,.92-3.12,1.39-4.58,1.39Zm-16.26-57.68c-.72,.46-1.5,1.16-2.04,2.16-1,1.86-.94,4.3,.17,7.26l3.48,11.65c.02,.3,2.34,29.9,11.87,34.91,1.73,.91,3.56,.94,5.57,.1-4.88-1.76-9.69-11.14-10.31-12.87h0c-2.96-5.2-2.71-13.09-1.98-18.79,.27-2.32-.42-4.69-1.89-6.5-3.51-4.44-4.8-12.39-5.2-15.61-.12-.79,0-1.6,.33-2.32Z" fill="#002346"></path>
  </g>
  <g>
    <path d="M223.74,653.01c-.24,.38-.55,.72-.9,1-.94,.79-2.17,1.15-3.39,1-15.37-1.77-19.55-10.15-19.55-10.15-4.5-5.38-11.47-8.04-18.41-7-5.25-.06-10.39-5.65-12.57-8.33-.8-.98-1.09-2.27-.79-3.5,1.94-8.14,13.36-16.87,13.36-16.87,.24,.14,.49,.27,.73,.39,3.57,1.91,7.35,3.37,11.28,4.35l.46,.12c2.92,.83,5.97,1.14,9,.93,.14,.01,.28,.01,.42,0-.92,10.13,10.66,19.51,15.35,22.87,1.99,1.4,3.63,3.23,4.8,5.35,2.4,4.47,1.45,7.84,.21,9.84Z" fill="#524595"></path>
    <path d="M219.99,655.55c-.2,0-.4-.01-.6-.04-14.98-1.72-19.48-9.56-19.91-10.37-4.36-5.18-11.22-7.78-17.92-6.78-5.37-.06-10.47-5.35-13.03-8.51-.9-1.09-1.23-2.56-.89-3.94,1.96-8.21,13.07-16.79,13.54-17.15l.27-.2,.29,.17c.23,.13,.47,.26,.7,.38,3.54,1.9,7.29,3.35,11.18,4.31l.46,.12c2.89,.82,5.86,1.13,8.84,.92,.19,0,.3,0,.42,0l.59-.05-.05,.59c-.89,9.8,10.29,18.94,15.14,22.42,2.03,1.43,3.74,3.33,4.95,5.51,2.67,4.97,1.27,8.62,.2,10.35h0c-.27,.43-.61,.81-1.01,1.13-.88,.74-2.01,1.14-3.16,1.14Zm-35.54-18.4c6.01,0,11.9,2.69,15.83,7.4l.06,.1c.04,.08,4.28,8.16,19.16,9.88,1.08,.14,2.18-.19,3.01-.89,.32-.25,.59-.55,.8-.88,1.17-1.89,2.08-5.04-.23-9.34-1.13-2.04-2.74-3.83-4.65-5.18-4.9-3.51-16.09-12.67-15.6-22.78-3,.21-6.06-.11-9.02-.95l-.45-.12c-3.96-.99-7.79-2.46-11.39-4.39-.14-.07-.29-.15-.45-.23-1.69,1.35-11.2,9.19-12.92,16.39-.27,1.07,0,2.22,.69,3.07,1.98,2.43,7.12,8.09,12.19,8.15,.98-.15,1.97-.22,2.96-.22Z" fill="#002346"></path>
  </g>
  <g>
    <path d="M222.9,654.01c-7.29,13.63-54.78-18-54.78-18-4.17-4.21,0-10,0-10-.3,1.23-.01,2.52,.79,3.5,2.18,2.68,7.32,8.27,12.57,8.33,6.94-1.04,13.91,1.62,18.41,7,0,0,4.18,8.38,19.55,10.15,1.22,.15,2.45-.21,3.39-1l.07,.02Z" fill="#fff"></path>
    <path d="M215.72,657.92c-15.42,0-46.47-20.55-47.88-21.49l-.08-.06c-4.42-4.46-.09-10.58-.05-10.64l1.51-2.1-.62,2.51c-.26,1.07,0,2.21,.69,3.06,1.98,2.43,7.12,8.09,12.19,8.15,6.98-1.05,14.21,1.7,18.79,7.18l.06,.1c.04,.08,4.28,8.16,19.16,9.88,1.08,.14,2.18-.19,3.01-.89l.2-.17,.85,.24-.22,.57c-.9,1.68-2.41,2.8-4.5,3.33-.95,.24-1.99,.35-3.12,.35Zm-47.28-22.3c1.44,.95,36.97,24.29,50.16,20.98,1.02-.26,1.87-.66,2.55-1.22-.57,.14-1.17,.18-1.77,.1-14.98-1.72-19.48-9.56-19.91-10.37-4.36-5.18-11.22-7.78-17.92-6.78-5.37-.05-10.47-5.35-13.03-8.51-.45-.55-.76-1.2-.91-1.89-.87,1.9-1.69,5.11,.83,7.69Z" fill="#002346"></path>
  </g>
  <g>
    <path d="M308.04,331.89l3.45,26.46,44.87,26.46s6.91-4.6,12.66-5.75c0,0,4.6-1.15,2.3,3.45,0,0-6.9,5.75-3.45,8.06,2.94,.57,5.95,.65,8.91,.23,.69-.11,1.34,.37,1.45,1.06,0,.03,0,.05,0,.08,.14,2-.68,5.53-8.07,5.53,0,0-18.41,3.45-24.16-3.45l-37.8-13.89s-11.68-3.37-12.83-13.73l-4.51-12.26,1.54-5.59c6.84-6.75,10.08-16.35,8.72-25.87,0,0,3.46,12.66,6.91,9.21Z" fill="#f2b3c1"></path>
    <path d="M360.24,398.85c-5.36,0-11.49-.88-14.53-4.41l-37.68-13.84c-.09-.02-11.93-3.56-13.15-14.08l-4.54-12.36,1.62-5.87,.1-.09c6.7-6.61,9.9-16.13,8.58-25.44l.98-.2c.92,3.37,3.08,8.91,4.95,9.4,.24,.06,.62,.09,1.13-.42l.72-.72,3.55,27.22,44.39,26.18c1.34-.86,7.36-4.61,12.58-5.65,.21-.05,2.25-.52,3.16,.61,.61,.76,.51,1.92-.31,3.56l-.13,.16c-1.21,1.01-4.34,4.07-4.23,6.05,.02,.47,.24,.85,.66,1.16,2.85,.54,5.76,.61,8.64,.21,.96-.15,1.86,.51,2.01,1.48v.11c.09,1.05-.07,2.56-1.25,3.82-1.4,1.5-3.85,2.25-7.3,2.25-.33,.07-4.77,.88-9.93,.88Zm-68.85-44.73l4.48,12.23c1.1,9.9,12.36,13.27,12.47,13.3l37.96,13.95,.09,.1c5.5,6.6,23.5,3.31,23.68,3.28,3.25,0,5.46-.66,6.66-1.95,.93-1,1.06-2.21,1-3.06-.07-.46-.47-.74-.88-.68-3.03,.43-6.09,.35-9.08-.23l-.18-.08c-.74-.5-1.14-1.17-1.18-1.99-.14-2.7,3.86-6.24,4.51-6.8,.56-1.15,.7-2,.38-2.39-.43-.54-1.73-.36-2.16-.26-5.61,1.12-12.44,5.64-12.5,5.68l-.26,.17-45.35-26.74-3.37-25.87c-.52,.25-1,.23-1.35,.13-1.79-.47-3.34-3.58-4.37-6.24,.06,8.22-3.18,16.26-9.07,22.13l-1.46,5.31Z" fill="#002346"></path>
  </g>
  <g>
    <path d="M114.74,216.83c3.65,12.13,5.96,24.62,6.91,37.25l18.41-5s-11.23-19.56-9.64-38l-15.68,5.75Z" fill="#524595"></path>
    <path d="M121.2,254.73l-.05-.6c-.94-12.57-3.26-25.07-6.89-37.14l-.14-.45,16.86-6.18-.07,.78c-1.56,18.07,9.46,37.51,9.58,37.71l.32,.56-19.62,5.33Zm-5.84-37.58c3.52,11.81,5.79,24.02,6.75,36.3l17.21-4.68c-1.78-3.31-10.55-20.54-9.45-36.95l-14.51,5.32Z" fill="#002346"></path>
  </g>
  <path d="M146.29,174.13c-.09-.64-.21-1.28-.35-1.92,.14,.64,.26,1.28,.35,1.92Z" fill="#524595"></path>
  <path d="M145.84,171.74c-.15-.67-.32-1.36-.51-2.07,.19,.69,.36,1.38,.51,2.07Z" fill="#524595"></path>
  <path d="M146.56,176.35c-.06-.67-.14-1.36-.24-2.07,.1,.69,.18,1.38,.24,2.07Z" fill="#524595"></path>
  <path d="M146.68,178.57c0-.58,0-1.17-.09-1.75,.05,.58,.08,1.19,.09,1.75Z" fill="#524595"></path>
  <g>
    <path d="M163.07,166.21l-4.6-15c-5.76-13.81-20.62-7.71-20.62-7.71l7.48,26.13-5.88-20.55s12.11-4.78,15.56,6.73l3.46,11.51s3.86,13.6-11.88,14.85h0c0-.28,0-.57,.05-.85-.12,2.15-.43,4.28-.93,6.37,24.03-2.6,17.36-21.48,17.36-21.48Z" fill="#fff"></path>
    <path d="M145.06,188.27l.17-.69c.43-1.81,.72-3.66,.87-5.51,0-.26,0-.54,.06-.83l.99,.12c0,.09-.01,.18-.02,.27,4.48-.46,7.68-2.01,9.5-4.63,2.85-4.09,1.38-9.47,1.36-9.53l-3.46-11.5c-.93-3.09-2.59-5.24-4.94-6.38-3.71-1.8-8.15-.62-9.53-.17l5.75,20.09-.96,.28-7.6-26.56,.41-.17c.15-.06,15.39-6.12,21.27,7.98l4.61,15.04c.15,.43,2.59,7.69-1.33,13.92-2.88,4.58-8.42,7.34-16.45,8.21l-.71,.08Zm1.99-5.63c-.14,1.5-.37,3-.69,4.48,7.33-.91,12.38-3.49,15.01-7.67,3.7-5.88,1.26-13,1.23-13.07v-.02s-4.61-15-4.61-15c-5.03-12.05-17.09-8.43-19.53-7.55l1.32,4.63c1.54-.5,6.19-1.73,10.24,.23,2.61,1.27,4.45,3.62,5.47,7l3.46,11.51c.07,.25,1.62,5.89-1.5,10.37-2.02,2.91-5.52,4.62-10.4,5.08Z" fill="#002346"></path>
  </g>
  <path d="M146.68,178.57v.35c.06-.12,0-.23,0-.35Z" fill="#524595"></path>
  <path d="M146.64,181.35v-.41c.02,.14,.01,.27,0,.41Z" fill="#524595"></path>
  <path d="M145.94,172.21c0-.16-.06-.32-.1-.47,.04,.15,.07,.27,.1,.47Z" fill="#524595"></path>
  <g>
    <path d="M82.28,200.09c-6.55,2.22-11.07,.49-14-1.89-2.63-2.21-4.38-5.28-4.93-8.67l-1.59-9c-1.61-9.09,5.69-11.9,9.14-12.7l-1.61-5.64c-4.39,1-13.5,4.41-12.68,15.79l2.61,15.43s5,18.61,26.82,11.13c-1.38-1.37-2.63-2.86-3.76-4.45Z" fill="#fff"></path>
    <path d="M76.44,206.82c-3.2,0-6.11-.69-8.69-2.06-6.92-3.68-8.93-10.91-9.01-11.22l-2.62-15.48c-.86-11.89,8.85-15.4,13.06-16.36l.46-.11,1.88,6.6-.51,.12c-3.15,.73-10.31,3.37-8.76,12.13l1.59,9c.53,3.27,2.22,6.25,4.76,8.37,3.68,2.99,8.23,3.59,13.52,1.8l.35-.12,.22,.3c1.11,1.56,2.35,3.04,3.71,4.39l.57,.57-.76,.26c-3.51,1.2-6.77,1.8-9.77,1.8Zm-7.5-44.03c-4.95,1.23-12.58,4.81-11.83,15.16l2.6,15.38s1.98,7.08,8.52,10.55c4.56,2.43,10.24,2.57,16.89,.44-1.09-1.14-2.11-2.36-3.03-3.64-6.83,2.19-11.44,.09-14.12-2.09-2.73-2.29-4.54-5.47-5.11-8.98l-1.59-8.99c-1.62-9.14,5.38-12.19,9.01-13.15l-1.34-4.68Z" fill="#002346"></path>
  </g>
  <g>
    <path d="M253.96,222.58c-2.48,1.16-4.26,3.44-4.78,6.13-.55,4.35,2.54,8.32,6.89,8.87,.04,0,.07,0,.11,.01,.72,.1,1.45,.15,2.18,.17,8.38,.17,15.32,6.55,16.18,14.89,0,.19,0,.38,.05,.57v15.13c0,3.79-.09,7.6-.43,11.38-.47,5.11,.22,15.34,13.17,15.34,0,0,23-2.3,20.71,36.82,0,0,26.46,1.15,27.61-25.32,0,0,2.3-12.65-18.41-23,0,0,6.77-17.4-7.17-22.07-2.02-.65-4.14-.92-6.26-.8-3.81,.17-11.92-.12-11.4-5.62,.67-7.18-16.59-41.7-38.45-32.5Z" fill="#002346"></path>
    <path d="M308.58,332.4c-.32,0-.51,0-.56,0l-.51-.02,.03-.51c.88-14.96-1.81-25.56-7.98-31.5-5.58-5.36-12.11-4.8-12.18-4.79h-.01c-4.69,0-8.23-1.3-10.57-3.87-3.35-3.67-3.4-9.1-3.13-12.02,.29-3.24,.43-6.85,.43-11.33v-15.07c-.05-.23-.05-.44-.05-.63-.83-8.02-7.58-14.23-15.69-14.39-.75-.02-1.5-.08-2.24-.17l-.04-.51-.06,.5c-2.24-.28-4.23-1.42-5.61-3.2s-1.99-3.99-1.71-6.23c.55-2.87,2.45-5.3,5.06-6.52h.02c6.97-2.94,14.02-1.85,20.96,3.24,11.14,8.17,18.67,24.63,18.19,29.76-.11,1.16,.19,2.09,.92,2.86,2.19,2.3,7.7,2.32,9.96,2.22,2.18-.13,4.35,.15,6.44,.82,3.69,1.24,6.3,3.45,7.77,6.59,2.87,6.13,.53,13.81-.14,15.71,20.38,10.36,18.38,22.81,18.28,23.34-.6,13.86-8.23,20.14-14.52,22.95-5.74,2.56-11.29,2.79-13.04,2.79Zm0-1s.08,0,.12,0c4.05,0,25.43-1.13,26.46-24.85,.03-.19,1.95-12.49-18.13-22.53l-.41-.2,.16-.42c.03-.09,3.37-8.85,.32-15.36-1.35-2.88-3.77-4.92-7.18-6.06-1.96-.63-4.01-.89-6.07-.77-2.99,.14-8.35-.02-10.74-2.53-.92-.97-1.32-2.2-1.19-3.64,.41-4.42-6.71-20.74-17.78-28.86-6.63-4.86-13.35-5.92-19.97-3.14-2.33,1.09-4,3.25-4.49,5.77-.24,1.94,.29,3.89,1.51,5.46,1.22,1.57,2.98,2.57,4.95,2.82h.12c.7,.11,1.42,.16,2.12,.18,8.62,.17,15.78,6.77,16.67,15.34,0,.22,0,.37,.04,.49l.02,.13v15.13c0,4.52-.14,8.15-.43,11.43-.25,2.75-.22,7.87,2.87,11.25,2.14,2.35,5.44,3.54,9.8,3.54,.23-.03,6.99-.63,12.9,5.05,6.33,6.08,9.14,16.77,8.34,31.78Z" fill="#002346"></path>
  </g>
  <g>
    <ellipse cx="276.97" cy="258.83" rx="5.75" ry="7.48" fill="#f2b3c1"></ellipse>
    <path d="M276.97,266.81c-3.45,0-6.25-3.58-6.25-7.98s2.8-7.98,6.25-7.98,6.25,3.58,6.25,7.98-2.8,7.98-6.25,7.98Zm0-14.96c-2.89,0-5.25,3.13-5.25,6.98s2.36,6.98,5.25,6.98,5.25-3.13,5.25-6.98-2.36-6.98-5.25-6.98Z" fill="#002346"></path>
  </g>
  <g>
    <ellipse cx="121.65" cy="211.08" rx="11.51" ry="10.36" fill="#fff"></ellipse>
    <path d="M121.65,221.95c-6.62,0-12.01-4.87-12.01-10.86s5.39-10.86,12.01-10.86,12.01,4.87,12.01,10.86-5.39,10.86-12.01,10.86Zm0-20.72c-6.07,0-11.01,4.42-11.01,9.86s4.94,9.86,11.01,9.86,11.01-4.42,11.01-9.86-4.94-9.86-11.01-9.86Z" fill="#002346"></path>
  </g>
  <g>
    <path d="M146.59,182.2h0c-1.53,19.56-18.63,34.17-38.19,32.64-8.44-.66-16.36-4.31-22.34-10.3-1.38-1.38-2.65-2.87-3.78-4.46-2.37-3.3-4.14-6.99-5.25-10.9l-6.11-21.35-1.61-5.64-2.67-9.34,68.28-19.53,2.93,10.21,1.6,5.58,5.88,20.55c1.16,4.07,1.59,8.32,1.26,12.54Z" fill="#524595"></path>
    <path d="M111.2,215.45c-.94,0-1.89-.04-2.84-.11-8.55-.67-16.6-4.38-22.66-10.44-1.4-1.39-2.69-2.91-3.83-4.52-2.41-3.36-4.2-7.08-5.32-11.05l-10.53-36.81,69.24-19.8,10.55,36.82c1.18,4.14,1.61,8.42,1.28,12.72h0c-1.48,18.85-17.29,33.21-35.88,33.21Zm-43.95-62.25l10.25,35.85c1.1,3.87,2.84,7.48,5.18,10.75,1.11,1.56,2.37,3.04,3.73,4.4,5.9,5.9,13.72,9.5,22.03,10.15,19.25,1.51,36.14-12.93,37.65-32.18h0c.32-4.18-.09-8.34-1.24-12.36l-10.27-35.86-67.32,19.25Z" fill="#002346"></path>
  </g>
  <g>
    <circle cx="110.14" cy="174.26" r="13.81" fill="#fff"></circle>
    <path d="M110.14,188.58c-7.89,0-14.31-6.42-14.31-14.31s6.42-14.31,14.31-14.31,14.31,6.42,14.31,14.31-6.42,14.31-14.31,14.31Zm0-27.62c-7.34,0-13.31,5.97-13.31,13.31s5.97,13.31,13.31,13.31,13.31-5.97,13.31-13.31-5.97-13.31-13.31-13.31Z" fill="#002346"></path>
  </g>
  <g>
    <circle cx="110.14" cy="174.26" r="10.36" fill="#e6e7e8"></circle>
    <path d="M110.14,185.13c-5.99,0-10.86-4.87-10.86-10.86s4.87-10.86,10.86-10.86,10.86,4.87,10.86,10.86-4.87,10.86-10.86,10.86Zm0-20.72c-5.44,0-9.86,4.42-9.86,9.86s4.42,9.86,9.86,9.86,9.86-4.42,9.86-9.86-4.42-9.86-9.86-9.86Z" fill="#002346"></path>
  </g>
  <g>
    <rect x="62.55" y="139.2" width="77.12" height="6.9" rx="3" ry="3" transform="translate(-35.33 33.3) rotate(-15.96)" fill="#fff"></rect>
    <path d="M67.04,156.37c-.59,0-1.17-.15-1.69-.44-.82-.45-1.41-1.2-1.67-2.1l-.25-.87c-.26-.9-.15-1.84,.31-2.66,.45-.82,1.2-1.41,2.1-1.67l68.38-19.56c1.86-.53,3.8,.55,4.33,2.4l.25,.87c.26,.9,.15,1.84-.3,2.66-.45,.82-1.2,1.41-2.1,1.67l-68.38,19.56c-.32,.09-.64,.14-.97,.14Zm68.14-26.42c-.23,0-.46,.03-.69,.1l-68.38,19.56c-.64,.18-1.17,.61-1.5,1.19s-.4,1.26-.22,1.9l.25,.87c.18,.64,.61,1.17,1.19,1.5,.58,.33,1.26,.4,1.9,.22l68.38-19.56c.64-.18,1.17-.61,1.5-1.19,.32-.58,.4-1.26,.22-1.9l-.25-.87c-.31-1.1-1.32-1.81-2.41-1.81Z" fill="#002346"></path>
  </g>
  <g>
    <path d="M103.24,219.13s-4.65-9.5,3.43-12.8c8.08-3.3,15,8.34,17.28,18.05,.73,3.87-.38,7.85-3,10.79-2.46,2.61-6.57,2.74-9.19,.28-.12-.11-.24-.23-.35-.36-2.6-2.85-5.83-7.77-8.17-15.96Z" fill="#f2b3c1"></path>
    <path d="M116.21,237.72c-1.79,0-3.48-.67-4.79-1.9-.13-.12-.26-.25-.38-.39-2.43-2.66-5.83-7.62-8.27-16.12-.25-.52-2.33-5.12-.82-9.07,.75-1.98,2.28-3.45,4.53-4.37,2.26-.92,4.55-.8,6.81,.36,5.43,2.8,9.52,11.08,11.15,18.03,.75,4.01-.41,8.21-3.11,11.24-1.29,1.37-3.03,2.15-4.89,2.21-.07,0-.14,0-.22,0Zm-6.73-31.46c-.88,0-1.75,.18-2.62,.53-1.99,.81-3.32,2.09-3.98,3.8-1.41,3.71,.78,8.27,.81,8.32l.03,.08c2.38,8.34,5.7,13.17,8.06,15.76,.1,.11,.21,.22,.32,.33,1.17,1.1,2.69,1.68,4.29,1.63,1.6-.05,3.09-.72,4.19-1.88,2.49-2.79,3.56-6.67,2.87-10.36-1.58-6.71-5.48-14.69-10.63-17.35-1.11-.57-2.23-.86-3.35-.86Z" fill="#002346"></path>
  </g>
  <g>
    <path d="M308.04,331.89c-3.45,3.45-6.91-9.21-6.91-9.21,1.36,9.52-1.88,19.12-8.72,25.87-4.13,15.49-6.23,19-6.23,19-4.49,.7-9.04,.85-13.56,.45h0c-18.43-1.29-39.36-8.5-39.36-8.5,2.11-30.57-19.94-47.62-23.64-50.27-.22-.17-.26-.48-.09-.7,.03-.03,.06-.06,.09-.09,6.47-6.1,9.7-14.89,8.72-23.73h9.08c11.38-2.3,19.54,6.93,19.54,6.93l5.9,20.69,25.31,5.75,11.51-5.75-2.3-17.26c24.11,0,20.66,36.82,20.66,36.82Z" fill="#524595"></path>
    <path d="M277.55,368.72c-1.66,0-3.32-.07-4.97-.22-18.28-1.28-39.27-8.45-39.48-8.53l-.36-.12,.03-.38c2.07-29.98-19.16-46.77-23.43-49.83-.45-.35-.53-.98-.19-1.41,.05-.07,.11-.13,.18-.18,6.28-5.93,9.49-14.64,8.53-23.28l-.06-.55h9.64c11.43-2.32,19.83,7,19.91,7.1l.11,.19,5.82,20.41,24.85,5.64,11.03-5.51-2.33-17.47h.57c5.56,0,10.14,1.93,13.62,5.75,9.42,10.34,7.62,30.76,7.54,31.62l-.02,.18-.13,.13c-.8,.8-1.58,.81-2.09,.68-1.79-.47-3.34-3.58-4.37-6.24,.06,8.22-3.19,16.26-9.07,22.13-4.08,15.27-6.16,18.85-6.25,19l-.12,.2-.23,.04c-2.88,.45-5.79,.67-8.71,.67Zm-43.77-9.57c2.85,.95,22.03,7.17,38.87,8.35,4.41,.39,8.84,.25,13.2-.41,.48-.94,2.53-5.41,6.07-18.67l.04-.13,.1-.1c6.7-6.61,9.9-16.13,8.58-25.44l.98-.2c.92,3.37,3.08,8.91,4.95,9.4,.22,.06,.56,.09,1-.3,.16-2.1,1.35-21.17-7.3-30.67-3.15-3.46-7.29-5.28-12.3-5.41l2.27,17.04-11.99,5.99-.17-.04-25.6-5.82-5.95-20.86c-.83-.89-8.6-8.79-18.99-6.69h-8.63c.8,8.77-2.52,17.56-8.93,23.6,4.28,3.12,25.72,20.08,23.82,50.34Z" fill="#002346"></path>
  </g>
  <path d="M273.3,439.53c-.1,0-.21-.03-.3-.1-.5-.37-12.33-9.16-13.52-17.21-.31-2.12,.14-4.02,1.35-5.63,.17-.22,.48-.27,.7-.1s.27,.48,.1,.7c-1.04,1.4-1.44,3.04-1.16,4.89,1.13,7.65,13,16.47,13.12,16.55,.22,.16,.27,.48,.11,.7-.1,.13-.25,.2-.4,.2Z" fill="#002346"></path>
  <g>
    <path d="M318.39,498.72s-12.65,13.8-39.12,18.41c0,0-54.07,16.83-61,21.08,0,0-9.69-11.12-8.23-19.14,.05-.27,.11-.53,.18-.79,0,0,37.83-30.04,63.15-28.86,.4,.02,.61-.48,.3-.74l-5.56-4.68-.34-.29s.29,.06,.82,.13c4.75,.6,9.57,.42,14.26-.53,7.53-1.62,15.71-5.97,18.87-16.77,.07-.22,.33-.32,.52-.19,3.26,2.28,25.76,18.47,16.15,32.36Z" fill="#f2b3c1"></path>
    <path d="M218.17,538.86l-.28-.32c-.4-.46-9.83-11.39-8.34-19.56,.05-.28,.11-.56,.19-.84l.04-.15,.13-.1c.38-.3,38.04-29.93,63.26-28.98l-7.2-6.08,1.91,.4s.29,.06,.78,.12c4.7,.59,9.44,.42,14.1-.52,9.69-2.08,15.91-7.6,18.49-16.42,.08-.26,.27-.47,.53-.56,.25-.09,.54-.05,.76,.1,4.41,3.08,25.9,19.14,16.28,33.05l-.04,.05c-.13,.14-13.07,13.98-39.4,18.56-.48,.15-54.03,16.84-60.82,21.01l-.36,.22Zm-7.51-20.29c-.05,.19-.09,.39-.13,.58-1.27,6.96,6.32,16.56,7.85,18.41,8.22-4.54,58.56-20.24,60.74-20.91,25.53-4.45,38.27-17.6,38.88-18.25,8.91-12.95-11.22-28.23-15.86-31.5-2.69,8.95-9.32,14.79-19.18,16.91-4.47,.9-9.03,1.12-13.55,.64l4.59,3.86c.31,.26,.41,.66,.27,1.03-.15,.38-.51,.62-.91,.58-24.11-1.12-60.25,26.74-62.69,28.65Z" fill="#002346"></path>
  </g>
  <g>
    <path d="M55.5,443.52H123.22v-65.84s-59.25-2.82-67.72,65.84Z" fill="#e6e7e8"></path>
    <path d="M123.72,444.02H54.93l.07-.56c4.4-35.69,22.72-51.81,37.31-59.05,15.8-7.84,30.78-7.23,30.93-7.22l.48,.02v66.82Zm-67.65-1H122.72v-64.85c-2.66-.03-15.99,.19-30,7.15-14.28,7.1-32.19,22.87-36.65,57.7Z" fill="#002346"></path>
  </g>
  <g>
    <rect x="89.36" y="247.89" width="25.39" height="195.93" fill="#fff"></rect>
    <path d="M115.25,444.32h-26.39V247.39h26.39v196.93Zm-25.39-1h24.39V248.39h-24.39v194.93Z" fill="#002346"></path>
  </g>
  <g>
    <path d="M116.22,254.85l28.34-8.11c4.25-1.21,8.68,1.24,9.89,5.49l.33,1.15h0l-43.73,12.51h0l-.33-1.15c-1.21-4.25,1.24-8.68,5.49-9.89h0Z" fill="#fff"></path>
    <path d="M110.71,266.51l-.47-1.63c-1.29-4.51,1.33-9.22,5.83-10.51h0l28.34-8.11c2.18-.62,4.48-.36,6.46,.74,1.98,1.1,3.42,2.91,4.05,5.09l.47,1.63-44.69,12.78Zm5.64-11.18h0c-3.98,1.14-6.29,5.3-5.15,9.27l.19,.67,42.77-12.23-.19-.67c-1.14-3.98-5.3-6.29-9.27-5.15l-28.34,8.11Z" fill="#002346"></path>
  </g>
  <g>
    <path d="M109.37,263.57l45.19-12.92c2.54-.75,5.2,.7,5.95,3.24,0,.02,0,.03,.01,.05l1.6,5.59h0l-54.51,15.59h0l-1.58-5.51c-.74-2.58,.75-5.28,3.33-6.03h0Z" fill="#524595"></path>
    <path d="M107.26,275.73l-1.71-5.99c-.82-2.84,.83-5.83,3.67-6.65h.01s45.19-12.93,45.19-12.93c1.35-.4,2.78-.25,4.02,.43s2.14,1.79,2.54,3.15l1.75,6.12-55.48,15.87Zm2.25-11.68h0c-2.32,.67-3.66,3.1-3,5.41l1.44,5.03,53.55-15.32-1.46-5.11c-.34-1.14-1.07-2.05-2.08-2.6-1.01-.55-2.17-.67-3.26-.35l-45.19,12.92Z" fill="#002346"></path>
  </g>
  <g>
    <rect x="103.06" y="266.91" width="65.18" height="5" rx="2.17" ry="2.17" transform="translate(-68.85 47.68) rotate(-15.96)" fill="#fff"></rect>
    <path d="M106.49,280.76c-.45,0-.89-.11-1.29-.34-.62-.35-1.07-.91-1.27-1.6l-.18-.63c-.2-.69-.11-1.41,.23-2.03,.35-.62,.91-1.08,1.6-1.27l58.49-16.73c1.42-.41,2.9,.42,3.3,1.83l.18,.63c.2,.69,.11,1.41-.23,2.03-.35,.62-.91,1.08-1.6,1.27l-58.49,16.73c-.24,.07-.49,.1-.74,.1Zm58.32-21.71c-.15,0-.31,.02-.46,.06l-58.49,16.73c-.43,.12-.78,.41-1,.79-.22,.39-.27,.84-.15,1.27l.18,.63c.12,.43,.4,.78,.79,1,.39,.22,.84,.27,1.27,.15l58.5-16.73c.43-.12,.78-.41,1-.79,.22-.39,.27-.84,.15-1.27l-.18-.63c-.21-.73-.88-1.21-1.61-1.21Z" fill="#002346"></path>
  </g>
  <g>
    <ellipse cx="252.52" cy="239.16" rx="15" ry="7.5" fill="#002346"></ellipse>
    <path d="M252.52,247.16c-8.69,0-15.5-3.51-15.5-8s6.81-8,15.5-8,15.5,3.51,15.5,8-6.81,8-15.5,8Zm0-15c-7.86,0-14.5,3.21-14.5,7s6.64,7,14.5,7,14.5-3.21,14.5-7-6.64-7-14.5-7Z" fill="#002346"></path>
  </g>
</svg>
